<mxfile host="app.diagrams.net" modified="2021-06-04T18:02:07.949Z" agent="5.0 (Windows NT 10.0; Win64; x64) AppleWebKit/537.36 (KHTML, like Gecko) Chrome/90.0.4430.212 Safari/537.36" etag="RgScUFz5mL9JrSJ8Goht" version="14.7.6" type="github" pages="7">
  <diagram id="R2lEEEUBdFMjLlhIrx00" name="Spider Service">
    <mxGraphModel dx="2062" dy="1123" grid="1" gridSize="10" guides="1" tooltips="1" connect="1" arrows="1" fold="1" page="1" pageScale="1" pageWidth="850" pageHeight="1100" math="0" shadow="0" extFonts="Permanent Marker^https://fonts.googleapis.com/css?family=Permanent+Marker">
      <root>
        <mxCell id="0" />
        <mxCell id="1" parent="0" />
        <mxCell id="C-vyLk0tnHw3VtMMgP7b-1" value="" style="edgeStyle=entityRelationEdgeStyle;endArrow=ERzeroToMany;startArrow=ERone;endFill=1;startFill=0;" parent="1" source="C-vyLk0tnHw3VtMMgP7b-24" target="C-vyLk0tnHw3VtMMgP7b-6" edge="1">
          <mxGeometry width="100" height="100" relative="1" as="geometry">
            <mxPoint x="340" y="720" as="sourcePoint" />
            <mxPoint x="440" y="620" as="targetPoint" />
          </mxGeometry>
        </mxCell>
        <mxCell id="C-vyLk0tnHw3VtMMgP7b-12" value="" style="edgeStyle=entityRelationEdgeStyle;endArrow=ERzeroToMany;startArrow=ERone;endFill=1;startFill=0;" parent="1" source="C-vyLk0tnHw3VtMMgP7b-3" target="C-vyLk0tnHw3VtMMgP7b-17" edge="1">
          <mxGeometry width="100" height="100" relative="1" as="geometry">
            <mxPoint x="400" y="180" as="sourcePoint" />
            <mxPoint x="460" y="205" as="targetPoint" />
          </mxGeometry>
        </mxCell>
        <mxCell id="C-vyLk0tnHw3VtMMgP7b-2" value="Orders" style="shape=table;startSize=30;container=1;collapsible=1;childLayout=tableLayout;fixedRows=1;rowLines=0;fontStyle=1;align=center;resizeLast=1;" parent="1" vertex="1">
          <mxGeometry x="450" y="120" width="250" height="130" as="geometry" />
        </mxCell>
        <mxCell id="C-vyLk0tnHw3VtMMgP7b-3" value="" style="shape=partialRectangle;collapsible=0;dropTarget=0;pointerEvents=0;fillColor=none;points=[[0,0.5],[1,0.5]];portConstraint=eastwest;top=0;left=0;right=0;bottom=1;" parent="C-vyLk0tnHw3VtMMgP7b-2" vertex="1">
          <mxGeometry y="30" width="250" height="30" as="geometry" />
        </mxCell>
        <mxCell id="C-vyLk0tnHw3VtMMgP7b-4" value="PK" style="shape=partialRectangle;overflow=hidden;connectable=0;fillColor=none;top=0;left=0;bottom=0;right=0;fontStyle=1;" parent="C-vyLk0tnHw3VtMMgP7b-3" vertex="1">
          <mxGeometry width="30" height="30" as="geometry" />
        </mxCell>
        <mxCell id="C-vyLk0tnHw3VtMMgP7b-5" value="order_id int NOT NULL " style="shape=partialRectangle;overflow=hidden;connectable=0;fillColor=none;top=0;left=0;bottom=0;right=0;align=left;spacingLeft=6;fontStyle=5;" parent="C-vyLk0tnHw3VtMMgP7b-3" vertex="1">
          <mxGeometry x="30" width="220" height="30" as="geometry" />
        </mxCell>
        <mxCell id="C-vyLk0tnHw3VtMMgP7b-6" value="" style="shape=partialRectangle;collapsible=0;dropTarget=0;pointerEvents=0;fillColor=none;points=[[0,0.5],[1,0.5]];portConstraint=eastwest;top=0;left=0;right=0;bottom=0;" parent="C-vyLk0tnHw3VtMMgP7b-2" vertex="1">
          <mxGeometry y="60" width="250" height="30" as="geometry" />
        </mxCell>
        <mxCell id="C-vyLk0tnHw3VtMMgP7b-7" value="FK1" style="shape=partialRectangle;overflow=hidden;connectable=0;fillColor=none;top=0;left=0;bottom=0;right=0;" parent="C-vyLk0tnHw3VtMMgP7b-6" vertex="1">
          <mxGeometry width="30" height="30" as="geometry" />
        </mxCell>
        <mxCell id="C-vyLk0tnHw3VtMMgP7b-8" value="customer_id int NOT NULL" style="shape=partialRectangle;overflow=hidden;connectable=0;fillColor=none;top=0;left=0;bottom=0;right=0;align=left;spacingLeft=6;" parent="C-vyLk0tnHw3VtMMgP7b-6" vertex="1">
          <mxGeometry x="30" width="220" height="30" as="geometry" />
        </mxCell>
        <mxCell id="C-vyLk0tnHw3VtMMgP7b-9" value="" style="shape=partialRectangle;collapsible=0;dropTarget=0;pointerEvents=0;fillColor=none;points=[[0,0.5],[1,0.5]];portConstraint=eastwest;top=0;left=0;right=0;bottom=0;" parent="C-vyLk0tnHw3VtMMgP7b-2" vertex="1">
          <mxGeometry y="90" width="250" height="30" as="geometry" />
        </mxCell>
        <mxCell id="C-vyLk0tnHw3VtMMgP7b-10" value="" style="shape=partialRectangle;overflow=hidden;connectable=0;fillColor=none;top=0;left=0;bottom=0;right=0;" parent="C-vyLk0tnHw3VtMMgP7b-9" vertex="1">
          <mxGeometry width="30" height="30" as="geometry" />
        </mxCell>
        <mxCell id="C-vyLk0tnHw3VtMMgP7b-11" value="order_date date NOT NULL" style="shape=partialRectangle;overflow=hidden;connectable=0;fillColor=none;top=0;left=0;bottom=0;right=0;align=left;spacingLeft=6;" parent="C-vyLk0tnHw3VtMMgP7b-9" vertex="1">
          <mxGeometry x="30" width="220" height="30" as="geometry" />
        </mxCell>
        <mxCell id="C-vyLk0tnHw3VtMMgP7b-13" value="Shipments" style="shape=table;startSize=30;container=1;collapsible=1;childLayout=tableLayout;fixedRows=1;rowLines=0;fontStyle=1;align=center;resizeLast=1;" parent="1" vertex="1">
          <mxGeometry x="450" y="280" width="250" height="130" as="geometry" />
        </mxCell>
        <mxCell id="C-vyLk0tnHw3VtMMgP7b-14" value="" style="shape=partialRectangle;collapsible=0;dropTarget=0;pointerEvents=0;fillColor=none;points=[[0,0.5],[1,0.5]];portConstraint=eastwest;top=0;left=0;right=0;bottom=1;" parent="C-vyLk0tnHw3VtMMgP7b-13" vertex="1">
          <mxGeometry y="30" width="250" height="30" as="geometry" />
        </mxCell>
        <mxCell id="C-vyLk0tnHw3VtMMgP7b-15" value="PK" style="shape=partialRectangle;overflow=hidden;connectable=0;fillColor=none;top=0;left=0;bottom=0;right=0;fontStyle=1;" parent="C-vyLk0tnHw3VtMMgP7b-14" vertex="1">
          <mxGeometry width="30" height="30" as="geometry" />
        </mxCell>
        <mxCell id="C-vyLk0tnHw3VtMMgP7b-16" value="shipment_id int NOT NULL " style="shape=partialRectangle;overflow=hidden;connectable=0;fillColor=none;top=0;left=0;bottom=0;right=0;align=left;spacingLeft=6;fontStyle=5;" parent="C-vyLk0tnHw3VtMMgP7b-14" vertex="1">
          <mxGeometry x="30" width="220" height="30" as="geometry" />
        </mxCell>
        <mxCell id="C-vyLk0tnHw3VtMMgP7b-17" value="" style="shape=partialRectangle;collapsible=0;dropTarget=0;pointerEvents=0;fillColor=none;points=[[0,0.5],[1,0.5]];portConstraint=eastwest;top=0;left=0;right=0;bottom=0;" parent="C-vyLk0tnHw3VtMMgP7b-13" vertex="1">
          <mxGeometry y="60" width="250" height="30" as="geometry" />
        </mxCell>
        <mxCell id="C-vyLk0tnHw3VtMMgP7b-18" value="FK1" style="shape=partialRectangle;overflow=hidden;connectable=0;fillColor=none;top=0;left=0;bottom=0;right=0;" parent="C-vyLk0tnHw3VtMMgP7b-17" vertex="1">
          <mxGeometry width="30" height="30" as="geometry" />
        </mxCell>
        <mxCell id="C-vyLk0tnHw3VtMMgP7b-19" value="order_id int NOT NULL" style="shape=partialRectangle;overflow=hidden;connectable=0;fillColor=none;top=0;left=0;bottom=0;right=0;align=left;spacingLeft=6;" parent="C-vyLk0tnHw3VtMMgP7b-17" vertex="1">
          <mxGeometry x="30" width="220" height="30" as="geometry" />
        </mxCell>
        <mxCell id="C-vyLk0tnHw3VtMMgP7b-20" value="" style="shape=partialRectangle;collapsible=0;dropTarget=0;pointerEvents=0;fillColor=none;points=[[0,0.5],[1,0.5]];portConstraint=eastwest;top=0;left=0;right=0;bottom=0;" parent="C-vyLk0tnHw3VtMMgP7b-13" vertex="1">
          <mxGeometry y="90" width="250" height="30" as="geometry" />
        </mxCell>
        <mxCell id="C-vyLk0tnHw3VtMMgP7b-21" value="" style="shape=partialRectangle;overflow=hidden;connectable=0;fillColor=none;top=0;left=0;bottom=0;right=0;" parent="C-vyLk0tnHw3VtMMgP7b-20" vertex="1">
          <mxGeometry width="30" height="30" as="geometry" />
        </mxCell>
        <mxCell id="C-vyLk0tnHw3VtMMgP7b-22" value="shipment_date date NOT NULL" style="shape=partialRectangle;overflow=hidden;connectable=0;fillColor=none;top=0;left=0;bottom=0;right=0;align=left;spacingLeft=6;" parent="C-vyLk0tnHw3VtMMgP7b-20" vertex="1">
          <mxGeometry x="30" width="220" height="30" as="geometry" />
        </mxCell>
        <mxCell id="C-vyLk0tnHw3VtMMgP7b-23" value="Customers" style="shape=table;startSize=30;container=1;collapsible=1;childLayout=tableLayout;fixedRows=1;rowLines=0;fontStyle=1;align=center;resizeLast=1;" parent="1" vertex="1">
          <mxGeometry x="120" y="120" width="250" height="100" as="geometry" />
        </mxCell>
        <mxCell id="C-vyLk0tnHw3VtMMgP7b-24" value="" style="shape=partialRectangle;collapsible=0;dropTarget=0;pointerEvents=0;fillColor=none;points=[[0,0.5],[1,0.5]];portConstraint=eastwest;top=0;left=0;right=0;bottom=1;" parent="C-vyLk0tnHw3VtMMgP7b-23" vertex="1">
          <mxGeometry y="30" width="250" height="30" as="geometry" />
        </mxCell>
        <mxCell id="C-vyLk0tnHw3VtMMgP7b-25" value="PK" style="shape=partialRectangle;overflow=hidden;connectable=0;fillColor=none;top=0;left=0;bottom=0;right=0;fontStyle=1;" parent="C-vyLk0tnHw3VtMMgP7b-24" vertex="1">
          <mxGeometry width="30" height="30" as="geometry" />
        </mxCell>
        <mxCell id="C-vyLk0tnHw3VtMMgP7b-26" value="customer_id int NOT NULL " style="shape=partialRectangle;overflow=hidden;connectable=0;fillColor=none;top=0;left=0;bottom=0;right=0;align=left;spacingLeft=6;fontStyle=5;" parent="C-vyLk0tnHw3VtMMgP7b-24" vertex="1">
          <mxGeometry x="30" width="220" height="30" as="geometry" />
        </mxCell>
        <mxCell id="C-vyLk0tnHw3VtMMgP7b-27" value="" style="shape=partialRectangle;collapsible=0;dropTarget=0;pointerEvents=0;fillColor=none;points=[[0,0.5],[1,0.5]];portConstraint=eastwest;top=0;left=0;right=0;bottom=0;" parent="C-vyLk0tnHw3VtMMgP7b-23" vertex="1">
          <mxGeometry y="60" width="250" height="30" as="geometry" />
        </mxCell>
        <mxCell id="C-vyLk0tnHw3VtMMgP7b-28" value="" style="shape=partialRectangle;overflow=hidden;connectable=0;fillColor=none;top=0;left=0;bottom=0;right=0;" parent="C-vyLk0tnHw3VtMMgP7b-27" vertex="1">
          <mxGeometry width="30" height="30" as="geometry" />
        </mxCell>
        <mxCell id="C-vyLk0tnHw3VtMMgP7b-29" value="customer_name char(50) NOT NULL" style="shape=partialRectangle;overflow=hidden;connectable=0;fillColor=none;top=0;left=0;bottom=0;right=0;align=left;spacingLeft=6;" parent="C-vyLk0tnHw3VtMMgP7b-27" vertex="1">
          <mxGeometry x="30" width="220" height="30" as="geometry" />
        </mxCell>
      </root>
    </mxGraphModel>
  </diagram>
  <diagram id="wz4teE9Ph_COmlE9O0rg" name="Data Processing Service">
    <mxGraphModel dx="2062" dy="1123" grid="1" gridSize="10" guides="1" tooltips="1" connect="1" arrows="1" fold="1" page="1" pageScale="1" pageWidth="827" pageHeight="1169" math="0" shadow="0">
      <root>
        <mxCell id="wcNOnf7XmsiUbd6YKk7T-0" />
        <mxCell id="wcNOnf7XmsiUbd6YKk7T-1" parent="wcNOnf7XmsiUbd6YKk7T-0" />
      </root>
    </mxGraphModel>
  </diagram>
  <diagram id="HiVJYpiUT6_ETJAQrGNE" name="AI Service">
    <mxGraphModel dx="2062" dy="1123" grid="1" gridSize="10" guides="1" tooltips="1" connect="1" arrows="1" fold="1" page="1" pageScale="1" pageWidth="827" pageHeight="1169" math="0" shadow="0">
      <root>
        <mxCell id="YXjCwZmUwQj4NsvhRpBL-0" />
        <mxCell id="YXjCwZmUwQj4NsvhRpBL-1" parent="YXjCwZmUwQj4NsvhRpBL-0" />
      </root>
    </mxGraphModel>
  </diagram>
  <diagram id="ZmWHYBY0YaMA6mTDzP07" name="Project Management Service">
    <mxGraphModel dx="2062" dy="1123" grid="1" gridSize="10" guides="1" tooltips="1" connect="1" arrows="1" fold="1" page="1" pageScale="1" pageWidth="1654" pageHeight="1169" math="0" shadow="0">
      <root>
        <mxCell id="DQ7ShNRfGAwnE18iPRg0-0" />
        <mxCell id="DQ7ShNRfGAwnE18iPRg0-1" parent="DQ7ShNRfGAwnE18iPRg0-0" />
        <mxCell id="SECbK9t0a_PqYQCM-xa5-0" value="Project" style="shape=table;startSize=30;container=1;collapsible=1;childLayout=tableLayout;fixedRows=1;rowLines=0;fontStyle=1;align=center;resizeLast=1;" vertex="1" parent="DQ7ShNRfGAwnE18iPRg0-1">
          <mxGeometry x="260" y="180" width="180" height="190" as="geometry" />
        </mxCell>
        <mxCell id="SECbK9t0a_PqYQCM-xa5-1" value="" style="shape=partialRectangle;collapsible=0;dropTarget=0;pointerEvents=0;fillColor=none;top=0;left=0;bottom=1;right=0;points=[[0,0.5],[1,0.5]];portConstraint=eastwest;" vertex="1" parent="SECbK9t0a_PqYQCM-xa5-0">
          <mxGeometry y="30" width="180" height="30" as="geometry" />
        </mxCell>
        <mxCell id="SECbK9t0a_PqYQCM-xa5-2" value="PK" style="shape=partialRectangle;connectable=0;fillColor=none;top=0;left=0;bottom=0;right=0;fontStyle=1;overflow=hidden;" vertex="1" parent="SECbK9t0a_PqYQCM-xa5-1">
          <mxGeometry width="30" height="30" as="geometry" />
        </mxCell>
        <mxCell id="SECbK9t0a_PqYQCM-xa5-3" value="project_id: uuid" style="shape=partialRectangle;connectable=0;fillColor=none;top=0;left=0;bottom=0;right=0;align=left;spacingLeft=6;fontStyle=5;overflow=hidden;" vertex="1" parent="SECbK9t0a_PqYQCM-xa5-1">
          <mxGeometry x="30" width="150" height="30" as="geometry" />
        </mxCell>
        <mxCell id="SECbK9t0a_PqYQCM-xa5-4" value="" style="shape=partialRectangle;collapsible=0;dropTarget=0;pointerEvents=0;fillColor=none;top=0;left=0;bottom=0;right=0;points=[[0,0.5],[1,0.5]];portConstraint=eastwest;" vertex="1" parent="SECbK9t0a_PqYQCM-xa5-0">
          <mxGeometry y="60" width="180" height="30" as="geometry" />
        </mxCell>
        <mxCell id="SECbK9t0a_PqYQCM-xa5-5" value="" style="shape=partialRectangle;connectable=0;fillColor=none;top=0;left=0;bottom=0;right=0;editable=1;overflow=hidden;" vertex="1" parent="SECbK9t0a_PqYQCM-xa5-4">
          <mxGeometry width="30" height="30" as="geometry" />
        </mxCell>
        <mxCell id="SECbK9t0a_PqYQCM-xa5-6" value="name" style="shape=partialRectangle;connectable=0;fillColor=none;top=0;left=0;bottom=0;right=0;align=left;spacingLeft=6;overflow=hidden;" vertex="1" parent="SECbK9t0a_PqYQCM-xa5-4">
          <mxGeometry x="30" width="150" height="30" as="geometry" />
        </mxCell>
        <mxCell id="SECbK9t0a_PqYQCM-xa5-7" value="" style="shape=partialRectangle;collapsible=0;dropTarget=0;pointerEvents=0;fillColor=none;top=0;left=0;bottom=0;right=0;points=[[0,0.5],[1,0.5]];portConstraint=eastwest;" vertex="1" parent="SECbK9t0a_PqYQCM-xa5-0">
          <mxGeometry y="90" width="180" height="30" as="geometry" />
        </mxCell>
        <mxCell id="SECbK9t0a_PqYQCM-xa5-8" value="" style="shape=partialRectangle;connectable=0;fillColor=none;top=0;left=0;bottom=0;right=0;editable=1;overflow=hidden;" vertex="1" parent="SECbK9t0a_PqYQCM-xa5-7">
          <mxGeometry width="30" height="30" as="geometry" />
        </mxCell>
        <mxCell id="SECbK9t0a_PqYQCM-xa5-9" value="create_dt" style="shape=partialRectangle;connectable=0;fillColor=none;top=0;left=0;bottom=0;right=0;align=left;spacingLeft=6;overflow=hidden;" vertex="1" parent="SECbK9t0a_PqYQCM-xa5-7">
          <mxGeometry x="30" width="150" height="30" as="geometry" />
        </mxCell>
        <mxCell id="SECbK9t0a_PqYQCM-xa5-10" value="" style="shape=partialRectangle;collapsible=0;dropTarget=0;pointerEvents=0;fillColor=none;top=0;left=0;bottom=0;right=0;points=[[0,0.5],[1,0.5]];portConstraint=eastwest;" vertex="1" parent="SECbK9t0a_PqYQCM-xa5-0">
          <mxGeometry y="120" width="180" height="30" as="geometry" />
        </mxCell>
        <mxCell id="SECbK9t0a_PqYQCM-xa5-11" value="" style="shape=partialRectangle;connectable=0;fillColor=none;top=0;left=0;bottom=0;right=0;editable=1;overflow=hidden;" vertex="1" parent="SECbK9t0a_PqYQCM-xa5-10">
          <mxGeometry width="30" height="30" as="geometry" />
        </mxCell>
        <mxCell id="SECbK9t0a_PqYQCM-xa5-12" value="user_id" style="shape=partialRectangle;connectable=0;fillColor=none;top=0;left=0;bottom=0;right=0;align=left;spacingLeft=6;overflow=hidden;" vertex="1" parent="SECbK9t0a_PqYQCM-xa5-10">
          <mxGeometry x="30" width="150" height="30" as="geometry" />
        </mxCell>
        <mxCell id="SECbK9t0a_PqYQCM-xa5-30" style="shape=partialRectangle;collapsible=0;dropTarget=0;pointerEvents=0;fillColor=none;top=0;left=0;bottom=0;right=0;points=[[0,0.5],[1,0.5]];portConstraint=eastwest;" vertex="1" parent="SECbK9t0a_PqYQCM-xa5-0">
          <mxGeometry y="150" width="180" height="30" as="geometry" />
        </mxCell>
        <mxCell id="SECbK9t0a_PqYQCM-xa5-31" style="shape=partialRectangle;connectable=0;fillColor=none;top=0;left=0;bottom=0;right=0;editable=1;overflow=hidden;" vertex="1" parent="SECbK9t0a_PqYQCM-xa5-30">
          <mxGeometry width="30" height="30" as="geometry" />
        </mxCell>
        <mxCell id="SECbK9t0a_PqYQCM-xa5-32" value="tenant_id" style="shape=partialRectangle;connectable=0;fillColor=none;top=0;left=0;bottom=0;right=0;align=left;spacingLeft=6;overflow=hidden;" vertex="1" parent="SECbK9t0a_PqYQCM-xa5-30">
          <mxGeometry x="30" width="150" height="30" as="geometry" />
        </mxCell>
        <mxCell id="SECbK9t0a_PqYQCM-xa5-13" value="Pipeline" style="shape=table;startSize=30;container=1;collapsible=1;childLayout=tableLayout;fixedRows=1;rowLines=0;fontStyle=1;align=center;resizeLast=1;" vertex="1" parent="DQ7ShNRfGAwnE18iPRg0-1">
          <mxGeometry x="550" y="180" width="180" height="190" as="geometry" />
        </mxCell>
        <mxCell id="SECbK9t0a_PqYQCM-xa5-14" value="" style="shape=partialRectangle;collapsible=0;dropTarget=0;pointerEvents=0;fillColor=none;top=0;left=0;bottom=1;right=0;points=[[0,0.5],[1,0.5]];portConstraint=eastwest;" vertex="1" parent="SECbK9t0a_PqYQCM-xa5-13">
          <mxGeometry y="30" width="180" height="30" as="geometry" />
        </mxCell>
        <mxCell id="SECbK9t0a_PqYQCM-xa5-15" value="PK" style="shape=partialRectangle;connectable=0;fillColor=none;top=0;left=0;bottom=0;right=0;fontStyle=1;overflow=hidden;" vertex="1" parent="SECbK9t0a_PqYQCM-xa5-14">
          <mxGeometry width="30" height="30" as="geometry" />
        </mxCell>
        <mxCell id="SECbK9t0a_PqYQCM-xa5-16" value="pipeline_id" style="shape=partialRectangle;connectable=0;fillColor=none;top=0;left=0;bottom=0;right=0;align=left;spacingLeft=6;fontStyle=5;overflow=hidden;" vertex="1" parent="SECbK9t0a_PqYQCM-xa5-14">
          <mxGeometry x="30" width="150" height="30" as="geometry" />
        </mxCell>
        <mxCell id="SECbK9t0a_PqYQCM-xa5-17" value="" style="shape=partialRectangle;collapsible=0;dropTarget=0;pointerEvents=0;fillColor=none;top=0;left=0;bottom=0;right=0;points=[[0,0.5],[1,0.5]];portConstraint=eastwest;" vertex="1" parent="SECbK9t0a_PqYQCM-xa5-13">
          <mxGeometry y="60" width="180" height="30" as="geometry" />
        </mxCell>
        <mxCell id="SECbK9t0a_PqYQCM-xa5-18" value="" style="shape=partialRectangle;connectable=0;fillColor=none;top=0;left=0;bottom=0;right=0;editable=1;overflow=hidden;" vertex="1" parent="SECbK9t0a_PqYQCM-xa5-17">
          <mxGeometry width="30" height="30" as="geometry" />
        </mxCell>
        <mxCell id="SECbK9t0a_PqYQCM-xa5-19" value="name" style="shape=partialRectangle;connectable=0;fillColor=none;top=0;left=0;bottom=0;right=0;align=left;spacingLeft=6;overflow=hidden;" vertex="1" parent="SECbK9t0a_PqYQCM-xa5-17">
          <mxGeometry x="30" width="150" height="30" as="geometry" />
        </mxCell>
        <mxCell id="SECbK9t0a_PqYQCM-xa5-20" value="" style="shape=partialRectangle;collapsible=0;dropTarget=0;pointerEvents=0;fillColor=none;top=0;left=0;bottom=0;right=0;points=[[0,0.5],[1,0.5]];portConstraint=eastwest;" vertex="1" parent="SECbK9t0a_PqYQCM-xa5-13">
          <mxGeometry y="90" width="180" height="30" as="geometry" />
        </mxCell>
        <mxCell id="SECbK9t0a_PqYQCM-xa5-21" value="" style="shape=partialRectangle;connectable=0;fillColor=none;top=0;left=0;bottom=0;right=0;editable=1;overflow=hidden;" vertex="1" parent="SECbK9t0a_PqYQCM-xa5-20">
          <mxGeometry width="30" height="30" as="geometry" />
        </mxCell>
        <mxCell id="SECbK9t0a_PqYQCM-xa5-22" value="project_id" style="shape=partialRectangle;connectable=0;fillColor=none;top=0;left=0;bottom=0;right=0;align=left;spacingLeft=6;overflow=hidden;" vertex="1" parent="SECbK9t0a_PqYQCM-xa5-20">
          <mxGeometry x="30" width="150" height="30" as="geometry" />
        </mxCell>
        <mxCell id="SECbK9t0a_PqYQCM-xa5-23" value="" style="shape=partialRectangle;collapsible=0;dropTarget=0;pointerEvents=0;fillColor=none;top=0;left=0;bottom=0;right=0;points=[[0,0.5],[1,0.5]];portConstraint=eastwest;" vertex="1" parent="SECbK9t0a_PqYQCM-xa5-13">
          <mxGeometry y="120" width="180" height="30" as="geometry" />
        </mxCell>
        <mxCell id="SECbK9t0a_PqYQCM-xa5-24" value="" style="shape=partialRectangle;connectable=0;fillColor=none;top=0;left=0;bottom=0;right=0;editable=1;overflow=hidden;" vertex="1" parent="SECbK9t0a_PqYQCM-xa5-23">
          <mxGeometry width="30" height="30" as="geometry" />
        </mxCell>
        <mxCell id="SECbK9t0a_PqYQCM-xa5-25" value="user_id" style="shape=partialRectangle;connectable=0;fillColor=none;top=0;left=0;bottom=0;right=0;align=left;spacingLeft=6;overflow=hidden;" vertex="1" parent="SECbK9t0a_PqYQCM-xa5-23">
          <mxGeometry x="30" width="150" height="30" as="geometry" />
        </mxCell>
        <mxCell id="SECbK9t0a_PqYQCM-xa5-51" style="shape=partialRectangle;collapsible=0;dropTarget=0;pointerEvents=0;fillColor=none;top=0;left=0;bottom=0;right=0;points=[[0,0.5],[1,0.5]];portConstraint=eastwest;" vertex="1" parent="SECbK9t0a_PqYQCM-xa5-13">
          <mxGeometry y="150" width="180" height="30" as="geometry" />
        </mxCell>
        <mxCell id="SECbK9t0a_PqYQCM-xa5-52" style="shape=partialRectangle;connectable=0;fillColor=none;top=0;left=0;bottom=0;right=0;editable=1;overflow=hidden;" vertex="1" parent="SECbK9t0a_PqYQCM-xa5-51">
          <mxGeometry width="30" height="30" as="geometry" />
        </mxCell>
        <mxCell id="SECbK9t0a_PqYQCM-xa5-53" value="tenant_id" style="shape=partialRectangle;connectable=0;fillColor=none;top=0;left=0;bottom=0;right=0;align=left;spacingLeft=6;overflow=hidden;" vertex="1" parent="SECbK9t0a_PqYQCM-xa5-51">
          <mxGeometry x="30" width="150" height="30" as="geometry" />
        </mxCell>
        <mxCell id="SECbK9t0a_PqYQCM-xa5-38" value="Step" style="shape=table;startSize=30;container=1;collapsible=1;childLayout=tableLayout;fixedRows=1;rowLines=0;fontStyle=1;align=center;resizeLast=1;" vertex="1" parent="DQ7ShNRfGAwnE18iPRg0-1">
          <mxGeometry x="830" y="180" width="180" height="280" as="geometry" />
        </mxCell>
        <mxCell id="SECbK9t0a_PqYQCM-xa5-39" value="" style="shape=partialRectangle;collapsible=0;dropTarget=0;pointerEvents=0;fillColor=none;top=0;left=0;bottom=1;right=0;points=[[0,0.5],[1,0.5]];portConstraint=eastwest;" vertex="1" parent="SECbK9t0a_PqYQCM-xa5-38">
          <mxGeometry y="30" width="180" height="30" as="geometry" />
        </mxCell>
        <mxCell id="SECbK9t0a_PqYQCM-xa5-40" value="PK" style="shape=partialRectangle;connectable=0;fillColor=none;top=0;left=0;bottom=0;right=0;fontStyle=1;overflow=hidden;" vertex="1" parent="SECbK9t0a_PqYQCM-xa5-39">
          <mxGeometry width="30" height="30" as="geometry" />
        </mxCell>
        <mxCell id="SECbK9t0a_PqYQCM-xa5-41" value="step_id" style="shape=partialRectangle;connectable=0;fillColor=none;top=0;left=0;bottom=0;right=0;align=left;spacingLeft=6;fontStyle=5;overflow=hidden;" vertex="1" parent="SECbK9t0a_PqYQCM-xa5-39">
          <mxGeometry x="30" width="150" height="30" as="geometry" />
        </mxCell>
        <mxCell id="SECbK9t0a_PqYQCM-xa5-42" value="" style="shape=partialRectangle;collapsible=0;dropTarget=0;pointerEvents=0;fillColor=none;top=0;left=0;bottom=0;right=0;points=[[0,0.5],[1,0.5]];portConstraint=eastwest;" vertex="1" parent="SECbK9t0a_PqYQCM-xa5-38">
          <mxGeometry y="60" width="180" height="30" as="geometry" />
        </mxCell>
        <mxCell id="SECbK9t0a_PqYQCM-xa5-43" value="" style="shape=partialRectangle;connectable=0;fillColor=none;top=0;left=0;bottom=0;right=0;editable=1;overflow=hidden;" vertex="1" parent="SECbK9t0a_PqYQCM-xa5-42">
          <mxGeometry width="30" height="30" as="geometry" />
        </mxCell>
        <mxCell id="SECbK9t0a_PqYQCM-xa5-44" value="name" style="shape=partialRectangle;connectable=0;fillColor=none;top=0;left=0;bottom=0;right=0;align=left;spacingLeft=6;overflow=hidden;" vertex="1" parent="SECbK9t0a_PqYQCM-xa5-42">
          <mxGeometry x="30" width="150" height="30" as="geometry" />
        </mxCell>
        <mxCell id="SECbK9t0a_PqYQCM-xa5-45" value="" style="shape=partialRectangle;collapsible=0;dropTarget=0;pointerEvents=0;fillColor=none;top=0;left=0;bottom=0;right=0;points=[[0,0.5],[1,0.5]];portConstraint=eastwest;" vertex="1" parent="SECbK9t0a_PqYQCM-xa5-38">
          <mxGeometry y="90" width="180" height="30" as="geometry" />
        </mxCell>
        <mxCell id="SECbK9t0a_PqYQCM-xa5-46" value="" style="shape=partialRectangle;connectable=0;fillColor=none;top=0;left=0;bottom=0;right=0;editable=1;overflow=hidden;" vertex="1" parent="SECbK9t0a_PqYQCM-xa5-45">
          <mxGeometry width="30" height="30" as="geometry" />
        </mxCell>
        <mxCell id="SECbK9t0a_PqYQCM-xa5-47" value="use_service" style="shape=partialRectangle;connectable=0;fillColor=none;top=0;left=0;bottom=0;right=0;align=left;spacingLeft=6;overflow=hidden;" vertex="1" parent="SECbK9t0a_PqYQCM-xa5-45">
          <mxGeometry x="30" width="150" height="30" as="geometry" />
        </mxCell>
        <mxCell id="SECbK9t0a_PqYQCM-xa5-48" value="" style="shape=partialRectangle;collapsible=0;dropTarget=0;pointerEvents=0;fillColor=none;top=0;left=0;bottom=0;right=0;points=[[0,0.5],[1,0.5]];portConstraint=eastwest;" vertex="1" parent="SECbK9t0a_PqYQCM-xa5-38">
          <mxGeometry y="120" width="180" height="30" as="geometry" />
        </mxCell>
        <mxCell id="SECbK9t0a_PqYQCM-xa5-49" value="" style="shape=partialRectangle;connectable=0;fillColor=none;top=0;left=0;bottom=0;right=0;editable=1;overflow=hidden;" vertex="1" parent="SECbK9t0a_PqYQCM-xa5-48">
          <mxGeometry width="30" height="30" as="geometry" />
        </mxCell>
        <mxCell id="SECbK9t0a_PqYQCM-xa5-50" value="job_spec： JSONString" style="shape=partialRectangle;connectable=0;fillColor=none;top=0;left=0;bottom=0;right=0;align=left;spacingLeft=6;overflow=hidden;" vertex="1" parent="SECbK9t0a_PqYQCM-xa5-48">
          <mxGeometry x="30" width="150" height="30" as="geometry" />
        </mxCell>
        <mxCell id="SECbK9t0a_PqYQCM-xa5-63" style="shape=partialRectangle;collapsible=0;dropTarget=0;pointerEvents=0;fillColor=none;top=0;left=0;bottom=0;right=0;points=[[0,0.5],[1,0.5]];portConstraint=eastwest;" vertex="1" parent="SECbK9t0a_PqYQCM-xa5-38">
          <mxGeometry y="150" width="180" height="30" as="geometry" />
        </mxCell>
        <mxCell id="SECbK9t0a_PqYQCM-xa5-64" style="shape=partialRectangle;connectable=0;fillColor=none;top=0;left=0;bottom=0;right=0;editable=1;overflow=hidden;" vertex="1" parent="SECbK9t0a_PqYQCM-xa5-63">
          <mxGeometry width="30" height="30" as="geometry" />
        </mxCell>
        <mxCell id="SECbK9t0a_PqYQCM-xa5-65" value="order_no: int" style="shape=partialRectangle;connectable=0;fillColor=none;top=0;left=0;bottom=0;right=0;align=left;spacingLeft=6;overflow=hidden;" vertex="1" parent="SECbK9t0a_PqYQCM-xa5-63">
          <mxGeometry x="30" width="150" height="30" as="geometry" />
        </mxCell>
        <mxCell id="SECbK9t0a_PqYQCM-xa5-54" style="shape=partialRectangle;collapsible=0;dropTarget=0;pointerEvents=0;fillColor=none;top=0;left=0;bottom=0;right=0;points=[[0,0.5],[1,0.5]];portConstraint=eastwest;" vertex="1" parent="SECbK9t0a_PqYQCM-xa5-38">
          <mxGeometry y="180" width="180" height="30" as="geometry" />
        </mxCell>
        <mxCell id="SECbK9t0a_PqYQCM-xa5-55" style="shape=partialRectangle;connectable=0;fillColor=none;top=0;left=0;bottom=0;right=0;editable=1;overflow=hidden;" vertex="1" parent="SECbK9t0a_PqYQCM-xa5-54">
          <mxGeometry width="30" height="30" as="geometry" />
        </mxCell>
        <mxCell id="SECbK9t0a_PqYQCM-xa5-56" value="pipeline_id" style="shape=partialRectangle;connectable=0;fillColor=none;top=0;left=0;bottom=0;right=0;align=left;spacingLeft=6;overflow=hidden;" vertex="1" parent="SECbK9t0a_PqYQCM-xa5-54">
          <mxGeometry x="30" width="150" height="30" as="geometry" />
        </mxCell>
        <mxCell id="SECbK9t0a_PqYQCM-xa5-57" style="shape=partialRectangle;collapsible=0;dropTarget=0;pointerEvents=0;fillColor=none;top=0;left=0;bottom=0;right=0;points=[[0,0.5],[1,0.5]];portConstraint=eastwest;" vertex="1" parent="SECbK9t0a_PqYQCM-xa5-38">
          <mxGeometry y="210" width="180" height="30" as="geometry" />
        </mxCell>
        <mxCell id="SECbK9t0a_PqYQCM-xa5-58" style="shape=partialRectangle;connectable=0;fillColor=none;top=0;left=0;bottom=0;right=0;editable=1;overflow=hidden;" vertex="1" parent="SECbK9t0a_PqYQCM-xa5-57">
          <mxGeometry width="30" height="30" as="geometry" />
        </mxCell>
        <mxCell id="SECbK9t0a_PqYQCM-xa5-59" value="user_id" style="shape=partialRectangle;connectable=0;fillColor=none;top=0;left=0;bottom=0;right=0;align=left;spacingLeft=6;overflow=hidden;" vertex="1" parent="SECbK9t0a_PqYQCM-xa5-57">
          <mxGeometry x="30" width="150" height="30" as="geometry" />
        </mxCell>
        <mxCell id="SECbK9t0a_PqYQCM-xa5-66" style="shape=partialRectangle;collapsible=0;dropTarget=0;pointerEvents=0;fillColor=none;top=0;left=0;bottom=0;right=0;points=[[0,0.5],[1,0.5]];portConstraint=eastwest;" vertex="1" parent="SECbK9t0a_PqYQCM-xa5-38">
          <mxGeometry y="240" width="180" height="30" as="geometry" />
        </mxCell>
        <mxCell id="SECbK9t0a_PqYQCM-xa5-67" style="shape=partialRectangle;connectable=0;fillColor=none;top=0;left=0;bottom=0;right=0;editable=1;overflow=hidden;" vertex="1" parent="SECbK9t0a_PqYQCM-xa5-66">
          <mxGeometry width="30" height="30" as="geometry" />
        </mxCell>
        <mxCell id="SECbK9t0a_PqYQCM-xa5-68" value="tenant_id" style="shape=partialRectangle;connectable=0;fillColor=none;top=0;left=0;bottom=0;right=0;align=left;spacingLeft=6;overflow=hidden;" vertex="1" parent="SECbK9t0a_PqYQCM-xa5-66">
          <mxGeometry x="30" width="150" height="30" as="geometry" />
        </mxCell>
        <mxCell id="SECbK9t0a_PqYQCM-xa5-69" value="" style="edgeStyle=entityRelationEdgeStyle;fontSize=12;html=1;endArrow=ERoneToMany;exitX=1;exitY=0.5;exitDx=0;exitDy=0;entryX=0;entryY=0.5;entryDx=0;entryDy=0;" edge="1" parent="DQ7ShNRfGAwnE18iPRg0-1" source="SECbK9t0a_PqYQCM-xa5-1" target="SECbK9t0a_PqYQCM-xa5-20">
          <mxGeometry width="100" height="100" relative="1" as="geometry">
            <mxPoint x="440" y="570" as="sourcePoint" />
            <mxPoint x="540" y="470" as="targetPoint" />
          </mxGeometry>
        </mxCell>
        <mxCell id="SECbK9t0a_PqYQCM-xa5-70" value="" style="edgeStyle=entityRelationEdgeStyle;fontSize=12;html=1;endArrow=ERoneToMany;exitX=1;exitY=0.5;exitDx=0;exitDy=0;entryX=0;entryY=0.5;entryDx=0;entryDy=0;" edge="1" parent="DQ7ShNRfGAwnE18iPRg0-1" source="SECbK9t0a_PqYQCM-xa5-14" target="SECbK9t0a_PqYQCM-xa5-54">
          <mxGeometry width="100" height="100" relative="1" as="geometry">
            <mxPoint x="450" y="235" as="sourcePoint" />
            <mxPoint x="560" y="295" as="targetPoint" />
          </mxGeometry>
        </mxCell>
      </root>
    </mxGraphModel>
  </diagram>
  <diagram id="6mjAdfQLhd1Ev8cgYtZh" name="Data Provider">
    <mxGraphModel dx="2062" dy="1123" grid="1" gridSize="10" guides="1" tooltips="1" connect="1" arrows="1" fold="1" page="1" pageScale="1" pageWidth="1654" pageHeight="1169" math="0" shadow="0">
      <root>
        <mxCell id="O-0z_XvXsrsmprmGc8mZ-0" />
        <mxCell id="O-0z_XvXsrsmprmGc8mZ-1" parent="O-0z_XvXsrsmprmGc8mZ-0" />
        <mxCell id="8F-fdPQP1DDQS2xu3WU4-0" value="Dataset" style="shape=table;startSize=30;container=1;collapsible=1;childLayout=tableLayout;fixedRows=1;rowLines=0;fontStyle=1;align=center;resizeLast=1;" vertex="1" parent="O-0z_XvXsrsmprmGc8mZ-1">
          <mxGeometry x="1000" y="310" width="180" height="490" as="geometry" />
        </mxCell>
        <mxCell id="8F-fdPQP1DDQS2xu3WU4-1" value="" style="shape=partialRectangle;collapsible=0;dropTarget=0;pointerEvents=0;fillColor=none;top=0;left=0;bottom=1;right=0;points=[[0,0.5],[1,0.5]];portConstraint=eastwest;" vertex="1" parent="8F-fdPQP1DDQS2xu3WU4-0">
          <mxGeometry y="30" width="180" height="30" as="geometry" />
        </mxCell>
        <mxCell id="8F-fdPQP1DDQS2xu3WU4-2" value="PK" style="shape=partialRectangle;connectable=0;fillColor=none;top=0;left=0;bottom=0;right=0;fontStyle=1;overflow=hidden;" vertex="1" parent="8F-fdPQP1DDQS2xu3WU4-1">
          <mxGeometry width="30" height="30" as="geometry" />
        </mxCell>
        <mxCell id="8F-fdPQP1DDQS2xu3WU4-3" value="dataset_id" style="shape=partialRectangle;connectable=0;fillColor=none;top=0;left=0;bottom=0;right=0;align=left;spacingLeft=6;fontStyle=5;overflow=hidden;" vertex="1" parent="8F-fdPQP1DDQS2xu3WU4-1">
          <mxGeometry x="30" width="150" height="30" as="geometry" />
        </mxCell>
        <mxCell id="8F-fdPQP1DDQS2xu3WU4-4" value="" style="shape=partialRectangle;collapsible=0;dropTarget=0;pointerEvents=0;fillColor=none;top=0;left=0;bottom=0;right=0;points=[[0,0.5],[1,0.5]];portConstraint=eastwest;" vertex="1" parent="8F-fdPQP1DDQS2xu3WU4-0">
          <mxGeometry y="60" width="180" height="30" as="geometry" />
        </mxCell>
        <mxCell id="8F-fdPQP1DDQS2xu3WU4-5" value="" style="shape=partialRectangle;connectable=0;fillColor=none;top=0;left=0;bottom=0;right=0;editable=1;overflow=hidden;" vertex="1" parent="8F-fdPQP1DDQS2xu3WU4-4">
          <mxGeometry width="30" height="30" as="geometry" />
        </mxCell>
        <mxCell id="8F-fdPQP1DDQS2xu3WU4-6" value="name: str" style="shape=partialRectangle;connectable=0;fillColor=none;top=0;left=0;bottom=0;right=0;align=left;spacingLeft=6;overflow=hidden;" vertex="1" parent="8F-fdPQP1DDQS2xu3WU4-4">
          <mxGeometry x="30" width="150" height="30" as="geometry" />
        </mxCell>
        <mxCell id="8F-fdPQP1DDQS2xu3WU4-37" style="shape=partialRectangle;collapsible=0;dropTarget=0;pointerEvents=0;fillColor=none;top=0;left=0;bottom=0;right=0;points=[[0,0.5],[1,0.5]];portConstraint=eastwest;" vertex="1" parent="8F-fdPQP1DDQS2xu3WU4-0">
          <mxGeometry y="90" width="180" height="30" as="geometry" />
        </mxCell>
        <mxCell id="8F-fdPQP1DDQS2xu3WU4-38" style="shape=partialRectangle;connectable=0;fillColor=none;top=0;left=0;bottom=0;right=0;editable=1;overflow=hidden;" vertex="1" parent="8F-fdPQP1DDQS2xu3WU4-37">
          <mxGeometry width="30" height="30" as="geometry" />
        </mxCell>
        <mxCell id="8F-fdPQP1DDQS2xu3WU4-39" value="description: str" style="shape=partialRectangle;connectable=0;fillColor=none;top=0;left=0;bottom=0;right=0;align=left;spacingLeft=6;overflow=hidden;" vertex="1" parent="8F-fdPQP1DDQS2xu3WU4-37">
          <mxGeometry x="30" width="150" height="30" as="geometry" />
        </mxCell>
        <mxCell id="8F-fdPQP1DDQS2xu3WU4-22" style="shape=partialRectangle;collapsible=0;dropTarget=0;pointerEvents=0;fillColor=none;top=0;left=0;bottom=0;right=0;points=[[0,0.5],[1,0.5]];portConstraint=eastwest;" vertex="1" parent="8F-fdPQP1DDQS2xu3WU4-0">
          <mxGeometry y="120" width="180" height="30" as="geometry" />
        </mxCell>
        <mxCell id="8F-fdPQP1DDQS2xu3WU4-23" style="shape=partialRectangle;connectable=0;fillColor=none;top=0;left=0;bottom=0;right=0;editable=1;overflow=hidden;" vertex="1" parent="8F-fdPQP1DDQS2xu3WU4-22">
          <mxGeometry width="30" height="30" as="geometry" />
        </mxCell>
        <mxCell id="8F-fdPQP1DDQS2xu3WU4-24" value="type:str" style="shape=partialRectangle;connectable=0;fillColor=none;top=0;left=0;bottom=0;right=0;align=left;spacingLeft=6;overflow=hidden;" vertex="1" parent="8F-fdPQP1DDQS2xu3WU4-22">
          <mxGeometry x="30" width="150" height="30" as="geometry" />
        </mxCell>
        <mxCell id="8F-fdPQP1DDQS2xu3WU4-34" style="shape=partialRectangle;collapsible=0;dropTarget=0;pointerEvents=0;fillColor=none;top=0;left=0;bottom=0;right=0;points=[[0,0.5],[1,0.5]];portConstraint=eastwest;" vertex="1" parent="8F-fdPQP1DDQS2xu3WU4-0">
          <mxGeometry y="150" width="180" height="30" as="geometry" />
        </mxCell>
        <mxCell id="8F-fdPQP1DDQS2xu3WU4-35" style="shape=partialRectangle;connectable=0;fillColor=none;top=0;left=0;bottom=0;right=0;editable=1;overflow=hidden;" vertex="1" parent="8F-fdPQP1DDQS2xu3WU4-34">
          <mxGeometry width="30" height="30" as="geometry" />
        </mxCell>
        <mxCell id="8F-fdPQP1DDQS2xu3WU4-36" value="version_no" style="shape=partialRectangle;connectable=0;fillColor=none;top=0;left=0;bottom=0;right=0;align=left;spacingLeft=6;overflow=hidden;" vertex="1" parent="8F-fdPQP1DDQS2xu3WU4-34">
          <mxGeometry x="30" width="150" height="30" as="geometry" />
        </mxCell>
        <mxCell id="aglGlDvpV62IEmC4X-FX-16" style="shape=partialRectangle;collapsible=0;dropTarget=0;pointerEvents=0;fillColor=none;top=0;left=0;bottom=0;right=0;points=[[0,0.5],[1,0.5]];portConstraint=eastwest;" vertex="1" parent="8F-fdPQP1DDQS2xu3WU4-0">
          <mxGeometry y="180" width="180" height="30" as="geometry" />
        </mxCell>
        <mxCell id="aglGlDvpV62IEmC4X-FX-17" style="shape=partialRectangle;connectable=0;fillColor=none;top=0;left=0;bottom=0;right=0;editable=1;overflow=hidden;" vertex="1" parent="aglGlDvpV62IEmC4X-FX-16">
          <mxGeometry width="30" height="30" as="geometry" />
        </mxCell>
        <mxCell id="aglGlDvpV62IEmC4X-FX-18" value="license" style="shape=partialRectangle;connectable=0;fillColor=none;top=0;left=0;bottom=0;right=0;align=left;spacingLeft=6;overflow=hidden;" vertex="1" parent="aglGlDvpV62IEmC4X-FX-16">
          <mxGeometry x="30" width="150" height="30" as="geometry" />
        </mxCell>
        <mxCell id="8F-fdPQP1DDQS2xu3WU4-31" style="shape=partialRectangle;collapsible=0;dropTarget=0;pointerEvents=0;fillColor=none;top=0;left=0;bottom=0;right=0;points=[[0,0.5],[1,0.5]];portConstraint=eastwest;" vertex="1" parent="8F-fdPQP1DDQS2xu3WU4-0">
          <mxGeometry y="210" width="180" height="30" as="geometry" />
        </mxCell>
        <mxCell id="8F-fdPQP1DDQS2xu3WU4-32" style="shape=partialRectangle;connectable=0;fillColor=none;top=0;left=0;bottom=0;right=0;editable=1;overflow=hidden;" vertex="1" parent="8F-fdPQP1DDQS2xu3WU4-31">
          <mxGeometry width="30" height="30" as="geometry" />
        </mxCell>
        <mxCell id="8F-fdPQP1DDQS2xu3WU4-33" value="stats_id" style="shape=partialRectangle;connectable=0;fillColor=none;top=0;left=0;bottom=0;right=0;align=left;spacingLeft=6;overflow=hidden;" vertex="1" parent="8F-fdPQP1DDQS2xu3WU4-31">
          <mxGeometry x="30" width="150" height="30" as="geometry" />
        </mxCell>
        <mxCell id="aglGlDvpV62IEmC4X-FX-54" style="shape=partialRectangle;collapsible=0;dropTarget=0;pointerEvents=0;fillColor=none;top=0;left=0;bottom=0;right=0;points=[[0,0.5],[1,0.5]];portConstraint=eastwest;" vertex="1" parent="8F-fdPQP1DDQS2xu3WU4-0">
          <mxGeometry y="240" width="180" height="30" as="geometry" />
        </mxCell>
        <mxCell id="aglGlDvpV62IEmC4X-FX-55" style="shape=partialRectangle;connectable=0;fillColor=none;top=0;left=0;bottom=0;right=0;editable=1;overflow=hidden;" vertex="1" parent="aglGlDvpV62IEmC4X-FX-54">
          <mxGeometry width="30" height="30" as="geometry" />
        </mxCell>
        <mxCell id="aglGlDvpV62IEmC4X-FX-56" value="topic_id" style="shape=partialRectangle;connectable=0;fillColor=none;top=0;left=0;bottom=0;right=0;align=left;spacingLeft=6;overflow=hidden;" vertex="1" parent="aglGlDvpV62IEmC4X-FX-54">
          <mxGeometry x="30" width="150" height="30" as="geometry" />
        </mxCell>
        <mxCell id="aglGlDvpV62IEmC4X-FX-19" style="shape=partialRectangle;collapsible=0;dropTarget=0;pointerEvents=0;fillColor=none;top=0;left=0;bottom=0;right=0;points=[[0,0.5],[1,0.5]];portConstraint=eastwest;" vertex="1" parent="8F-fdPQP1DDQS2xu3WU4-0">
          <mxGeometry y="270" width="180" height="30" as="geometry" />
        </mxCell>
        <mxCell id="aglGlDvpV62IEmC4X-FX-20" style="shape=partialRectangle;connectable=0;fillColor=none;top=0;left=0;bottom=0;right=0;editable=1;overflow=hidden;" vertex="1" parent="aglGlDvpV62IEmC4X-FX-19">
          <mxGeometry width="30" height="30" as="geometry" />
        </mxCell>
        <mxCell id="aglGlDvpV62IEmC4X-FX-21" value="tag_set_id" style="shape=partialRectangle;connectable=0;fillColor=none;top=0;left=0;bottom=0;right=0;align=left;spacingLeft=6;overflow=hidden;" vertex="1" parent="aglGlDvpV62IEmC4X-FX-19">
          <mxGeometry x="30" width="150" height="30" as="geometry" />
        </mxCell>
        <mxCell id="8F-fdPQP1DDQS2xu3WU4-7" value="" style="shape=partialRectangle;collapsible=0;dropTarget=0;pointerEvents=0;fillColor=none;top=0;left=0;bottom=0;right=0;points=[[0,0.5],[1,0.5]];portConstraint=eastwest;" vertex="1" parent="8F-fdPQP1DDQS2xu3WU4-0">
          <mxGeometry y="300" width="180" height="30" as="geometry" />
        </mxCell>
        <mxCell id="8F-fdPQP1DDQS2xu3WU4-8" value="" style="shape=partialRectangle;connectable=0;fillColor=none;top=0;left=0;bottom=0;right=0;editable=1;overflow=hidden;" vertex="1" parent="8F-fdPQP1DDQS2xu3WU4-7">
          <mxGeometry width="30" height="30" as="geometry" />
        </mxCell>
        <mxCell id="8F-fdPQP1DDQS2xu3WU4-9" value="create_dt" style="shape=partialRectangle;connectable=0;fillColor=none;top=0;left=0;bottom=0;right=0;align=left;spacingLeft=6;overflow=hidden;" vertex="1" parent="8F-fdPQP1DDQS2xu3WU4-7">
          <mxGeometry x="30" width="150" height="30" as="geometry" />
        </mxCell>
        <mxCell id="8F-fdPQP1DDQS2xu3WU4-10" value="" style="shape=partialRectangle;collapsible=0;dropTarget=0;pointerEvents=0;fillColor=none;top=0;left=0;bottom=0;right=0;points=[[0,0.5],[1,0.5]];portConstraint=eastwest;" vertex="1" parent="8F-fdPQP1DDQS2xu3WU4-0">
          <mxGeometry y="330" width="180" height="30" as="geometry" />
        </mxCell>
        <mxCell id="8F-fdPQP1DDQS2xu3WU4-11" value="" style="shape=partialRectangle;connectable=0;fillColor=none;top=0;left=0;bottom=0;right=0;editable=1;overflow=hidden;" vertex="1" parent="8F-fdPQP1DDQS2xu3WU4-10">
          <mxGeometry width="30" height="30" as="geometry" />
        </mxCell>
        <mxCell id="8F-fdPQP1DDQS2xu3WU4-12" value="last_update_dt" style="shape=partialRectangle;connectable=0;fillColor=none;top=0;left=0;bottom=0;right=0;align=left;spacingLeft=6;overflow=hidden;" vertex="1" parent="8F-fdPQP1DDQS2xu3WU4-10">
          <mxGeometry x="30" width="150" height="30" as="geometry" />
        </mxCell>
        <mxCell id="8F-fdPQP1DDQS2xu3WU4-72" style="shape=partialRectangle;collapsible=0;dropTarget=0;pointerEvents=0;fillColor=none;top=0;left=0;bottom=0;right=0;points=[[0,0.5],[1,0.5]];portConstraint=eastwest;" vertex="1" parent="8F-fdPQP1DDQS2xu3WU4-0">
          <mxGeometry y="360" width="180" height="30" as="geometry" />
        </mxCell>
        <mxCell id="8F-fdPQP1DDQS2xu3WU4-73" style="shape=partialRectangle;connectable=0;fillColor=none;top=0;left=0;bottom=0;right=0;editable=1;overflow=hidden;" vertex="1" parent="8F-fdPQP1DDQS2xu3WU4-72">
          <mxGeometry width="30" height="30" as="geometry" />
        </mxCell>
        <mxCell id="8F-fdPQP1DDQS2xu3WU4-74" value="is_deleted" style="shape=partialRectangle;connectable=0;fillColor=none;top=0;left=0;bottom=0;right=0;align=left;spacingLeft=6;overflow=hidden;" vertex="1" parent="8F-fdPQP1DDQS2xu3WU4-72">
          <mxGeometry x="30" width="150" height="30" as="geometry" />
        </mxCell>
        <mxCell id="8F-fdPQP1DDQS2xu3WU4-13" style="shape=partialRectangle;collapsible=0;dropTarget=0;pointerEvents=0;fillColor=none;top=0;left=0;bottom=0;right=0;points=[[0,0.5],[1,0.5]];portConstraint=eastwest;" vertex="1" parent="8F-fdPQP1DDQS2xu3WU4-0">
          <mxGeometry y="390" width="180" height="30" as="geometry" />
        </mxCell>
        <mxCell id="8F-fdPQP1DDQS2xu3WU4-14" style="shape=partialRectangle;connectable=0;fillColor=none;top=0;left=0;bottom=0;right=0;editable=1;overflow=hidden;" vertex="1" parent="8F-fdPQP1DDQS2xu3WU4-13">
          <mxGeometry width="30" height="30" as="geometry" />
        </mxCell>
        <mxCell id="8F-fdPQP1DDQS2xu3WU4-15" value="project_id" style="shape=partialRectangle;connectable=0;fillColor=none;top=0;left=0;bottom=0;right=0;align=left;spacingLeft=6;overflow=hidden;" vertex="1" parent="8F-fdPQP1DDQS2xu3WU4-13">
          <mxGeometry x="30" width="150" height="30" as="geometry" />
        </mxCell>
        <mxCell id="8F-fdPQP1DDQS2xu3WU4-16" style="shape=partialRectangle;collapsible=0;dropTarget=0;pointerEvents=0;fillColor=none;top=0;left=0;bottom=0;right=0;points=[[0,0.5],[1,0.5]];portConstraint=eastwest;" vertex="1" parent="8F-fdPQP1DDQS2xu3WU4-0">
          <mxGeometry y="420" width="180" height="30" as="geometry" />
        </mxCell>
        <mxCell id="8F-fdPQP1DDQS2xu3WU4-17" style="shape=partialRectangle;connectable=0;fillColor=none;top=0;left=0;bottom=0;right=0;editable=1;overflow=hidden;" vertex="1" parent="8F-fdPQP1DDQS2xu3WU4-16">
          <mxGeometry width="30" height="30" as="geometry" />
        </mxCell>
        <mxCell id="8F-fdPQP1DDQS2xu3WU4-18" value="user_id" style="shape=partialRectangle;connectable=0;fillColor=none;top=0;left=0;bottom=0;right=0;align=left;spacingLeft=6;overflow=hidden;" vertex="1" parent="8F-fdPQP1DDQS2xu3WU4-16">
          <mxGeometry x="30" width="150" height="30" as="geometry" />
        </mxCell>
        <mxCell id="8F-fdPQP1DDQS2xu3WU4-19" style="shape=partialRectangle;collapsible=0;dropTarget=0;pointerEvents=0;fillColor=none;top=0;left=0;bottom=0;right=0;points=[[0,0.5],[1,0.5]];portConstraint=eastwest;" vertex="1" parent="8F-fdPQP1DDQS2xu3WU4-0">
          <mxGeometry y="450" width="180" height="30" as="geometry" />
        </mxCell>
        <mxCell id="8F-fdPQP1DDQS2xu3WU4-20" style="shape=partialRectangle;connectable=0;fillColor=none;top=0;left=0;bottom=0;right=0;editable=1;overflow=hidden;" vertex="1" parent="8F-fdPQP1DDQS2xu3WU4-19">
          <mxGeometry width="30" height="30" as="geometry" />
        </mxCell>
        <mxCell id="8F-fdPQP1DDQS2xu3WU4-21" value="tenant_id" style="shape=partialRectangle;connectable=0;fillColor=none;top=0;left=0;bottom=0;right=0;align=left;spacingLeft=6;overflow=hidden;" vertex="1" parent="8F-fdPQP1DDQS2xu3WU4-19">
          <mxGeometry x="30" width="150" height="30" as="geometry" />
        </mxCell>
        <mxCell id="8F-fdPQP1DDQS2xu3WU4-40" value="FieldInfo" style="shape=table;startSize=30;container=1;collapsible=1;childLayout=tableLayout;fixedRows=1;rowLines=0;fontStyle=1;align=center;resizeLast=1;" vertex="1" parent="O-0z_XvXsrsmprmGc8mZ-1">
          <mxGeometry x="1260" y="410" width="180" height="190" as="geometry" />
        </mxCell>
        <mxCell id="8F-fdPQP1DDQS2xu3WU4-41" value="" style="shape=partialRectangle;collapsible=0;dropTarget=0;pointerEvents=0;fillColor=none;top=0;left=0;bottom=1;right=0;points=[[0,0.5],[1,0.5]];portConstraint=eastwest;" vertex="1" parent="8F-fdPQP1DDQS2xu3WU4-40">
          <mxGeometry y="30" width="180" height="30" as="geometry" />
        </mxCell>
        <mxCell id="8F-fdPQP1DDQS2xu3WU4-42" value="PK" style="shape=partialRectangle;connectable=0;fillColor=none;top=0;left=0;bottom=0;right=0;fontStyle=1;overflow=hidden;" vertex="1" parent="8F-fdPQP1DDQS2xu3WU4-41">
          <mxGeometry width="30" height="30" as="geometry" />
        </mxCell>
        <mxCell id="8F-fdPQP1DDQS2xu3WU4-43" value="field_info" style="shape=partialRectangle;connectable=0;fillColor=none;top=0;left=0;bottom=0;right=0;align=left;spacingLeft=6;fontStyle=5;overflow=hidden;" vertex="1" parent="8F-fdPQP1DDQS2xu3WU4-41">
          <mxGeometry x="30" width="150" height="30" as="geometry" />
        </mxCell>
        <mxCell id="8F-fdPQP1DDQS2xu3WU4-44" value="" style="shape=partialRectangle;collapsible=0;dropTarget=0;pointerEvents=0;fillColor=none;top=0;left=0;bottom=0;right=0;points=[[0,0.5],[1,0.5]];portConstraint=eastwest;" vertex="1" parent="8F-fdPQP1DDQS2xu3WU4-40">
          <mxGeometry y="60" width="180" height="30" as="geometry" />
        </mxCell>
        <mxCell id="8F-fdPQP1DDQS2xu3WU4-45" value="" style="shape=partialRectangle;connectable=0;fillColor=none;top=0;left=0;bottom=0;right=0;editable=1;overflow=hidden;" vertex="1" parent="8F-fdPQP1DDQS2xu3WU4-44">
          <mxGeometry width="30" height="30" as="geometry" />
        </mxCell>
        <mxCell id="8F-fdPQP1DDQS2xu3WU4-46" value="name: str" style="shape=partialRectangle;connectable=0;fillColor=none;top=0;left=0;bottom=0;right=0;align=left;spacingLeft=6;overflow=hidden;" vertex="1" parent="8F-fdPQP1DDQS2xu3WU4-44">
          <mxGeometry x="30" width="150" height="30" as="geometry" />
        </mxCell>
        <mxCell id="8F-fdPQP1DDQS2xu3WU4-47" value="" style="shape=partialRectangle;collapsible=0;dropTarget=0;pointerEvents=0;fillColor=none;top=0;left=0;bottom=0;right=0;points=[[0,0.5],[1,0.5]];portConstraint=eastwest;" vertex="1" parent="8F-fdPQP1DDQS2xu3WU4-40">
          <mxGeometry y="90" width="180" height="30" as="geometry" />
        </mxCell>
        <mxCell id="8F-fdPQP1DDQS2xu3WU4-48" value="" style="shape=partialRectangle;connectable=0;fillColor=none;top=0;left=0;bottom=0;right=0;editable=1;overflow=hidden;" vertex="1" parent="8F-fdPQP1DDQS2xu3WU4-47">
          <mxGeometry width="30" height="30" as="geometry" />
        </mxCell>
        <mxCell id="8F-fdPQP1DDQS2xu3WU4-49" value="type: str" style="shape=partialRectangle;connectable=0;fillColor=none;top=0;left=0;bottom=0;right=0;align=left;spacingLeft=6;overflow=hidden;" vertex="1" parent="8F-fdPQP1DDQS2xu3WU4-47">
          <mxGeometry x="30" width="150" height="30" as="geometry" />
        </mxCell>
        <mxCell id="8F-fdPQP1DDQS2xu3WU4-50" value="" style="shape=partialRectangle;collapsible=0;dropTarget=0;pointerEvents=0;fillColor=none;top=0;left=0;bottom=0;right=0;points=[[0,0.5],[1,0.5]];portConstraint=eastwest;" vertex="1" parent="8F-fdPQP1DDQS2xu3WU4-40">
          <mxGeometry y="120" width="180" height="30" as="geometry" />
        </mxCell>
        <mxCell id="8F-fdPQP1DDQS2xu3WU4-51" value="" style="shape=partialRectangle;connectable=0;fillColor=none;top=0;left=0;bottom=0;right=0;editable=1;overflow=hidden;" vertex="1" parent="8F-fdPQP1DDQS2xu3WU4-50">
          <mxGeometry width="30" height="30" as="geometry" />
        </mxCell>
        <mxCell id="8F-fdPQP1DDQS2xu3WU4-52" value="data_set_id: uuid" style="shape=partialRectangle;connectable=0;fillColor=none;top=0;left=0;bottom=0;right=0;align=left;spacingLeft=6;overflow=hidden;" vertex="1" parent="8F-fdPQP1DDQS2xu3WU4-50">
          <mxGeometry x="30" width="150" height="30" as="geometry" />
        </mxCell>
        <mxCell id="8F-fdPQP1DDQS2xu3WU4-53" style="shape=partialRectangle;collapsible=0;dropTarget=0;pointerEvents=0;fillColor=none;top=0;left=0;bottom=0;right=0;points=[[0,0.5],[1,0.5]];portConstraint=eastwest;" vertex="1" parent="8F-fdPQP1DDQS2xu3WU4-40">
          <mxGeometry y="150" width="180" height="30" as="geometry" />
        </mxCell>
        <mxCell id="8F-fdPQP1DDQS2xu3WU4-54" style="shape=partialRectangle;connectable=0;fillColor=none;top=0;left=0;bottom=0;right=0;editable=1;overflow=hidden;" vertex="1" parent="8F-fdPQP1DDQS2xu3WU4-53">
          <mxGeometry width="30" height="30" as="geometry" />
        </mxCell>
        <mxCell id="8F-fdPQP1DDQS2xu3WU4-55" value="tenant_id" style="shape=partialRectangle;connectable=0;fillColor=none;top=0;left=0;bottom=0;right=0;align=left;spacingLeft=6;overflow=hidden;" vertex="1" parent="8F-fdPQP1DDQS2xu3WU4-53">
          <mxGeometry x="30" width="150" height="30" as="geometry" />
        </mxCell>
        <mxCell id="8F-fdPQP1DDQS2xu3WU4-59" value="DataRow" style="shape=table;startSize=30;container=1;collapsible=1;childLayout=tableLayout;fixedRows=1;rowLines=0;fontStyle=1;align=center;resizeLast=1;" vertex="1" parent="O-0z_XvXsrsmprmGc8mZ-1">
          <mxGeometry x="1260" y="670" width="180" height="310" as="geometry" />
        </mxCell>
        <mxCell id="8F-fdPQP1DDQS2xu3WU4-60" value="" style="shape=partialRectangle;collapsible=0;dropTarget=0;pointerEvents=0;fillColor=none;top=0;left=0;bottom=1;right=0;points=[[0,0.5],[1,0.5]];portConstraint=eastwest;" vertex="1" parent="8F-fdPQP1DDQS2xu3WU4-59">
          <mxGeometry y="30" width="180" height="30" as="geometry" />
        </mxCell>
        <mxCell id="8F-fdPQP1DDQS2xu3WU4-61" value="PK" style="shape=partialRectangle;connectable=0;fillColor=none;top=0;left=0;bottom=0;right=0;fontStyle=1;overflow=hidden;" vertex="1" parent="8F-fdPQP1DDQS2xu3WU4-60">
          <mxGeometry width="30" height="30" as="geometry" />
        </mxCell>
        <mxCell id="8F-fdPQP1DDQS2xu3WU4-62" value="data_row_id" style="shape=partialRectangle;connectable=0;fillColor=none;top=0;left=0;bottom=0;right=0;align=left;spacingLeft=6;fontStyle=5;overflow=hidden;" vertex="1" parent="8F-fdPQP1DDQS2xu3WU4-60">
          <mxGeometry x="30" width="150" height="30" as="geometry" />
        </mxCell>
        <mxCell id="8F-fdPQP1DDQS2xu3WU4-63" value="" style="shape=partialRectangle;collapsible=0;dropTarget=0;pointerEvents=0;fillColor=none;top=0;left=0;bottom=0;right=0;points=[[0,0.5],[1,0.5]];portConstraint=eastwest;" vertex="1" parent="8F-fdPQP1DDQS2xu3WU4-59">
          <mxGeometry y="60" width="180" height="30" as="geometry" />
        </mxCell>
        <mxCell id="8F-fdPQP1DDQS2xu3WU4-64" value="" style="shape=partialRectangle;connectable=0;fillColor=none;top=0;left=0;bottom=0;right=0;editable=1;overflow=hidden;" vertex="1" parent="8F-fdPQP1DDQS2xu3WU4-63">
          <mxGeometry width="30" height="30" as="geometry" />
        </mxCell>
        <mxCell id="8F-fdPQP1DDQS2xu3WU4-65" value="row_value: JSONString" style="shape=partialRectangle;connectable=0;fillColor=none;top=0;left=0;bottom=0;right=0;align=left;spacingLeft=6;overflow=hidden;" vertex="1" parent="8F-fdPQP1DDQS2xu3WU4-63">
          <mxGeometry x="30" width="150" height="30" as="geometry" />
        </mxCell>
        <mxCell id="8F-fdPQP1DDQS2xu3WU4-94" style="shape=partialRectangle;collapsible=0;dropTarget=0;pointerEvents=0;fillColor=none;top=0;left=0;bottom=0;right=0;points=[[0,0.5],[1,0.5]];portConstraint=eastwest;" vertex="1" parent="8F-fdPQP1DDQS2xu3WU4-59">
          <mxGeometry y="90" width="180" height="30" as="geometry" />
        </mxCell>
        <mxCell id="8F-fdPQP1DDQS2xu3WU4-95" style="shape=partialRectangle;connectable=0;fillColor=none;top=0;left=0;bottom=0;right=0;editable=1;overflow=hidden;" vertex="1" parent="8F-fdPQP1DDQS2xu3WU4-94">
          <mxGeometry width="30" height="30" as="geometry" />
        </mxCell>
        <mxCell id="8F-fdPQP1DDQS2xu3WU4-96" value="table_name: str" style="shape=partialRectangle;connectable=0;fillColor=none;top=0;left=0;bottom=0;right=0;align=left;spacingLeft=6;overflow=hidden;" vertex="1" parent="8F-fdPQP1DDQS2xu3WU4-94">
          <mxGeometry x="30" width="150" height="30" as="geometry" />
        </mxCell>
        <mxCell id="8F-fdPQP1DDQS2xu3WU4-66" value="" style="shape=partialRectangle;collapsible=0;dropTarget=0;pointerEvents=0;fillColor=none;top=0;left=0;bottom=0;right=0;points=[[0,0.5],[1,0.5]];portConstraint=eastwest;" vertex="1" parent="8F-fdPQP1DDQS2xu3WU4-59">
          <mxGeometry y="120" width="180" height="30" as="geometry" />
        </mxCell>
        <mxCell id="8F-fdPQP1DDQS2xu3WU4-67" value="" style="shape=partialRectangle;connectable=0;fillColor=none;top=0;left=0;bottom=0;right=0;editable=1;overflow=hidden;" vertex="1" parent="8F-fdPQP1DDQS2xu3WU4-66">
          <mxGeometry width="30" height="30" as="geometry" />
        </mxCell>
        <mxCell id="8F-fdPQP1DDQS2xu3WU4-68" value="dataset_id" style="shape=partialRectangle;connectable=0;fillColor=none;top=0;left=0;bottom=0;right=0;align=left;spacingLeft=6;overflow=hidden;" vertex="1" parent="8F-fdPQP1DDQS2xu3WU4-66">
          <mxGeometry x="30" width="150" height="30" as="geometry" />
        </mxCell>
        <mxCell id="8F-fdPQP1DDQS2xu3WU4-69" value="" style="shape=partialRectangle;collapsible=0;dropTarget=0;pointerEvents=0;fillColor=none;top=0;left=0;bottom=0;right=0;points=[[0,0.5],[1,0.5]];portConstraint=eastwest;" vertex="1" parent="8F-fdPQP1DDQS2xu3WU4-59">
          <mxGeometry y="150" width="180" height="30" as="geometry" />
        </mxCell>
        <mxCell id="8F-fdPQP1DDQS2xu3WU4-70" value="" style="shape=partialRectangle;connectable=0;fillColor=none;top=0;left=0;bottom=0;right=0;editable=1;overflow=hidden;" vertex="1" parent="8F-fdPQP1DDQS2xu3WU4-69">
          <mxGeometry width="30" height="30" as="geometry" />
        </mxCell>
        <mxCell id="8F-fdPQP1DDQS2xu3WU4-71" value="create_dt" style="shape=partialRectangle;connectable=0;fillColor=none;top=0;left=0;bottom=0;right=0;align=left;spacingLeft=6;overflow=hidden;" vertex="1" parent="8F-fdPQP1DDQS2xu3WU4-69">
          <mxGeometry x="30" width="150" height="30" as="geometry" />
        </mxCell>
        <mxCell id="8F-fdPQP1DDQS2xu3WU4-75" style="shape=partialRectangle;collapsible=0;dropTarget=0;pointerEvents=0;fillColor=none;top=0;left=0;bottom=0;right=0;points=[[0,0.5],[1,0.5]];portConstraint=eastwest;" vertex="1" parent="8F-fdPQP1DDQS2xu3WU4-59">
          <mxGeometry y="180" width="180" height="30" as="geometry" />
        </mxCell>
        <mxCell id="8F-fdPQP1DDQS2xu3WU4-76" style="shape=partialRectangle;connectable=0;fillColor=none;top=0;left=0;bottom=0;right=0;editable=1;overflow=hidden;" vertex="1" parent="8F-fdPQP1DDQS2xu3WU4-75">
          <mxGeometry width="30" height="30" as="geometry" />
        </mxCell>
        <mxCell id="8F-fdPQP1DDQS2xu3WU4-77" value="last_update_dt" style="shape=partialRectangle;connectable=0;fillColor=none;top=0;left=0;bottom=0;right=0;align=left;spacingLeft=6;overflow=hidden;" vertex="1" parent="8F-fdPQP1DDQS2xu3WU4-75">
          <mxGeometry x="30" width="150" height="30" as="geometry" />
        </mxCell>
        <mxCell id="8F-fdPQP1DDQS2xu3WU4-78" style="shape=partialRectangle;collapsible=0;dropTarget=0;pointerEvents=0;fillColor=none;top=0;left=0;bottom=0;right=0;points=[[0,0.5],[1,0.5]];portConstraint=eastwest;" vertex="1" parent="8F-fdPQP1DDQS2xu3WU4-59">
          <mxGeometry y="210" width="180" height="30" as="geometry" />
        </mxCell>
        <mxCell id="8F-fdPQP1DDQS2xu3WU4-79" style="shape=partialRectangle;connectable=0;fillColor=none;top=0;left=0;bottom=0;right=0;editable=1;overflow=hidden;" vertex="1" parent="8F-fdPQP1DDQS2xu3WU4-78">
          <mxGeometry width="30" height="30" as="geometry" />
        </mxCell>
        <mxCell id="8F-fdPQP1DDQS2xu3WU4-80" value="is_deleted" style="shape=partialRectangle;connectable=0;fillColor=none;top=0;left=0;bottom=0;right=0;align=left;spacingLeft=6;overflow=hidden;" vertex="1" parent="8F-fdPQP1DDQS2xu3WU4-78">
          <mxGeometry x="30" width="150" height="30" as="geometry" />
        </mxCell>
        <mxCell id="8F-fdPQP1DDQS2xu3WU4-100" style="shape=partialRectangle;collapsible=0;dropTarget=0;pointerEvents=0;fillColor=none;top=0;left=0;bottom=0;right=0;points=[[0,0.5],[1,0.5]];portConstraint=eastwest;" vertex="1" parent="8F-fdPQP1DDQS2xu3WU4-59">
          <mxGeometry y="240" width="180" height="30" as="geometry" />
        </mxCell>
        <mxCell id="8F-fdPQP1DDQS2xu3WU4-101" style="shape=partialRectangle;connectable=0;fillColor=none;top=0;left=0;bottom=0;right=0;editable=1;overflow=hidden;" vertex="1" parent="8F-fdPQP1DDQS2xu3WU4-100">
          <mxGeometry width="30" height="30" as="geometry" />
        </mxCell>
        <mxCell id="8F-fdPQP1DDQS2xu3WU4-102" value="user_id" style="shape=partialRectangle;connectable=0;fillColor=none;top=0;left=0;bottom=0;right=0;align=left;spacingLeft=6;overflow=hidden;" vertex="1" parent="8F-fdPQP1DDQS2xu3WU4-100">
          <mxGeometry x="30" width="150" height="30" as="geometry" />
        </mxCell>
        <mxCell id="8F-fdPQP1DDQS2xu3WU4-97" style="shape=partialRectangle;collapsible=0;dropTarget=0;pointerEvents=0;fillColor=none;top=0;left=0;bottom=0;right=0;points=[[0,0.5],[1,0.5]];portConstraint=eastwest;" vertex="1" parent="8F-fdPQP1DDQS2xu3WU4-59">
          <mxGeometry y="270" width="180" height="30" as="geometry" />
        </mxCell>
        <mxCell id="8F-fdPQP1DDQS2xu3WU4-98" style="shape=partialRectangle;connectable=0;fillColor=none;top=0;left=0;bottom=0;right=0;editable=1;overflow=hidden;" vertex="1" parent="8F-fdPQP1DDQS2xu3WU4-97">
          <mxGeometry width="30" height="30" as="geometry" />
        </mxCell>
        <mxCell id="8F-fdPQP1DDQS2xu3WU4-99" value="tenant_id" style="shape=partialRectangle;connectable=0;fillColor=none;top=0;left=0;bottom=0;right=0;align=left;spacingLeft=6;overflow=hidden;" vertex="1" parent="8F-fdPQP1DDQS2xu3WU4-97">
          <mxGeometry x="30" width="150" height="30" as="geometry" />
        </mxCell>
        <mxCell id="8F-fdPQP1DDQS2xu3WU4-81" value="Topic" style="shape=table;startSize=30;container=1;collapsible=1;childLayout=tableLayout;fixedRows=1;rowLines=0;fontStyle=1;align=center;resizeLast=1;" vertex="1" parent="O-0z_XvXsrsmprmGc8mZ-1">
          <mxGeometry x="760" y="310" width="180" height="290" as="geometry" />
        </mxCell>
        <mxCell id="8F-fdPQP1DDQS2xu3WU4-82" value="" style="shape=partialRectangle;collapsible=0;dropTarget=0;pointerEvents=0;fillColor=none;top=0;left=0;bottom=1;right=0;points=[[0,0.5],[1,0.5]];portConstraint=eastwest;" vertex="1" parent="8F-fdPQP1DDQS2xu3WU4-81">
          <mxGeometry y="30" width="180" height="30" as="geometry" />
        </mxCell>
        <mxCell id="8F-fdPQP1DDQS2xu3WU4-83" value="PK" style="shape=partialRectangle;connectable=0;fillColor=none;top=0;left=0;bottom=0;right=0;fontStyle=1;overflow=hidden;" vertex="1" parent="8F-fdPQP1DDQS2xu3WU4-82">
          <mxGeometry width="30" height="30" as="geometry" />
        </mxCell>
        <mxCell id="8F-fdPQP1DDQS2xu3WU4-84" value="topic_id" style="shape=partialRectangle;connectable=0;fillColor=none;top=0;left=0;bottom=0;right=0;align=left;spacingLeft=6;fontStyle=5;overflow=hidden;" vertex="1" parent="8F-fdPQP1DDQS2xu3WU4-82">
          <mxGeometry x="30" width="150" height="30" as="geometry" />
        </mxCell>
        <mxCell id="8F-fdPQP1DDQS2xu3WU4-85" value="" style="shape=partialRectangle;collapsible=0;dropTarget=0;pointerEvents=0;fillColor=none;top=0;left=0;bottom=0;right=0;points=[[0,0.5],[1,0.5]];portConstraint=eastwest;" vertex="1" parent="8F-fdPQP1DDQS2xu3WU4-81">
          <mxGeometry y="60" width="180" height="30" as="geometry" />
        </mxCell>
        <mxCell id="8F-fdPQP1DDQS2xu3WU4-86" value="" style="shape=partialRectangle;connectable=0;fillColor=none;top=0;left=0;bottom=0;right=0;editable=1;overflow=hidden;" vertex="1" parent="8F-fdPQP1DDQS2xu3WU4-85">
          <mxGeometry width="30" height="30" as="geometry" />
        </mxCell>
        <mxCell id="8F-fdPQP1DDQS2xu3WU4-87" value="name: str" style="shape=partialRectangle;connectable=0;fillColor=none;top=0;left=0;bottom=0;right=0;align=left;spacingLeft=6;overflow=hidden;" vertex="1" parent="8F-fdPQP1DDQS2xu3WU4-85">
          <mxGeometry x="30" width="150" height="30" as="geometry" />
        </mxCell>
        <mxCell id="8F-fdPQP1DDQS2xu3WU4-88" value="" style="shape=partialRectangle;collapsible=0;dropTarget=0;pointerEvents=0;fillColor=none;top=0;left=0;bottom=0;right=0;points=[[0,0.5],[1,0.5]];portConstraint=eastwest;" vertex="1" parent="8F-fdPQP1DDQS2xu3WU4-81">
          <mxGeometry y="90" width="180" height="40" as="geometry" />
        </mxCell>
        <mxCell id="8F-fdPQP1DDQS2xu3WU4-89" value="" style="shape=partialRectangle;connectable=0;fillColor=none;top=0;left=0;bottom=0;right=0;editable=1;overflow=hidden;" vertex="1" parent="8F-fdPQP1DDQS2xu3WU4-88">
          <mxGeometry width="30" height="40" as="geometry" />
        </mxCell>
        <mxCell id="8F-fdPQP1DDQS2xu3WU4-90" value="description:str" style="shape=partialRectangle;connectable=0;fillColor=none;top=0;left=0;bottom=0;right=0;align=left;spacingLeft=6;overflow=hidden;" vertex="1" parent="8F-fdPQP1DDQS2xu3WU4-88">
          <mxGeometry x="30" width="150" height="40" as="geometry" />
        </mxCell>
        <mxCell id="8F-fdPQP1DDQS2xu3WU4-91" value="" style="shape=partialRectangle;collapsible=0;dropTarget=0;pointerEvents=0;fillColor=none;top=0;left=0;bottom=0;right=0;points=[[0,0.5],[1,0.5]];portConstraint=eastwest;" vertex="1" parent="8F-fdPQP1DDQS2xu3WU4-81">
          <mxGeometry y="130" width="180" height="30" as="geometry" />
        </mxCell>
        <mxCell id="8F-fdPQP1DDQS2xu3WU4-92" value="" style="shape=partialRectangle;connectable=0;fillColor=none;top=0;left=0;bottom=0;right=0;editable=1;overflow=hidden;" vertex="1" parent="8F-fdPQP1DDQS2xu3WU4-91">
          <mxGeometry width="30" height="30" as="geometry" />
        </mxCell>
        <mxCell id="8F-fdPQP1DDQS2xu3WU4-93" value="create_dt" style="shape=partialRectangle;connectable=0;fillColor=none;top=0;left=0;bottom=0;right=0;align=left;spacingLeft=6;overflow=hidden;" vertex="1" parent="8F-fdPQP1DDQS2xu3WU4-91">
          <mxGeometry x="30" width="150" height="30" as="geometry" />
        </mxCell>
        <mxCell id="8F-fdPQP1DDQS2xu3WU4-103" style="shape=partialRectangle;collapsible=0;dropTarget=0;pointerEvents=0;fillColor=none;top=0;left=0;bottom=0;right=0;points=[[0,0.5],[1,0.5]];portConstraint=eastwest;" vertex="1" parent="8F-fdPQP1DDQS2xu3WU4-81">
          <mxGeometry y="160" width="180" height="30" as="geometry" />
        </mxCell>
        <mxCell id="8F-fdPQP1DDQS2xu3WU4-104" style="shape=partialRectangle;connectable=0;fillColor=none;top=0;left=0;bottom=0;right=0;editable=1;overflow=hidden;" vertex="1" parent="8F-fdPQP1DDQS2xu3WU4-103">
          <mxGeometry width="30" height="30" as="geometry" />
        </mxCell>
        <mxCell id="8F-fdPQP1DDQS2xu3WU4-105" value="last_update_dt" style="shape=partialRectangle;connectable=0;fillColor=none;top=0;left=0;bottom=0;right=0;align=left;spacingLeft=6;overflow=hidden;" vertex="1" parent="8F-fdPQP1DDQS2xu3WU4-103">
          <mxGeometry x="30" width="150" height="30" as="geometry" />
        </mxCell>
        <mxCell id="8F-fdPQP1DDQS2xu3WU4-138" style="shape=partialRectangle;collapsible=0;dropTarget=0;pointerEvents=0;fillColor=none;top=0;left=0;bottom=0;right=0;points=[[0,0.5],[1,0.5]];portConstraint=eastwest;" vertex="1" parent="8F-fdPQP1DDQS2xu3WU4-81">
          <mxGeometry y="190" width="180" height="30" as="geometry" />
        </mxCell>
        <mxCell id="8F-fdPQP1DDQS2xu3WU4-139" style="shape=partialRectangle;connectable=0;fillColor=none;top=0;left=0;bottom=0;right=0;editable=1;overflow=hidden;" vertex="1" parent="8F-fdPQP1DDQS2xu3WU4-138">
          <mxGeometry width="30" height="30" as="geometry" />
        </mxCell>
        <mxCell id="8F-fdPQP1DDQS2xu3WU4-140" value="parent_topic_id" style="shape=partialRectangle;connectable=0;fillColor=none;top=0;left=0;bottom=0;right=0;align=left;spacingLeft=6;overflow=hidden;" vertex="1" parent="8F-fdPQP1DDQS2xu3WU4-138">
          <mxGeometry x="30" width="150" height="30" as="geometry" />
        </mxCell>
        <mxCell id="8F-fdPQP1DDQS2xu3WU4-106" style="shape=partialRectangle;collapsible=0;dropTarget=0;pointerEvents=0;fillColor=none;top=0;left=0;bottom=0;right=0;points=[[0,0.5],[1,0.5]];portConstraint=eastwest;" vertex="1" parent="8F-fdPQP1DDQS2xu3WU4-81">
          <mxGeometry y="220" width="180" height="30" as="geometry" />
        </mxCell>
        <mxCell id="8F-fdPQP1DDQS2xu3WU4-107" style="shape=partialRectangle;connectable=0;fillColor=none;top=0;left=0;bottom=0;right=0;editable=1;overflow=hidden;" vertex="1" parent="8F-fdPQP1DDQS2xu3WU4-106">
          <mxGeometry width="30" height="30" as="geometry" />
        </mxCell>
        <mxCell id="8F-fdPQP1DDQS2xu3WU4-108" value="subscription_table_id" style="shape=partialRectangle;connectable=0;fillColor=none;top=0;left=0;bottom=0;right=0;align=left;spacingLeft=6;overflow=hidden;" vertex="1" parent="8F-fdPQP1DDQS2xu3WU4-106">
          <mxGeometry x="30" width="150" height="30" as="geometry" />
        </mxCell>
        <mxCell id="8F-fdPQP1DDQS2xu3WU4-135" style="shape=partialRectangle;collapsible=0;dropTarget=0;pointerEvents=0;fillColor=none;top=0;left=0;bottom=0;right=0;points=[[0,0.5],[1,0.5]];portConstraint=eastwest;" vertex="1" parent="8F-fdPQP1DDQS2xu3WU4-81">
          <mxGeometry y="250" width="180" height="30" as="geometry" />
        </mxCell>
        <mxCell id="8F-fdPQP1DDQS2xu3WU4-136" style="shape=partialRectangle;connectable=0;fillColor=none;top=0;left=0;bottom=0;right=0;editable=1;overflow=hidden;" vertex="1" parent="8F-fdPQP1DDQS2xu3WU4-135">
          <mxGeometry width="30" height="30" as="geometry" />
        </mxCell>
        <mxCell id="8F-fdPQP1DDQS2xu3WU4-137" value="project_id" style="shape=partialRectangle;connectable=0;fillColor=none;top=0;left=0;bottom=0;right=0;align=left;spacingLeft=6;overflow=hidden;" vertex="1" parent="8F-fdPQP1DDQS2xu3WU4-135">
          <mxGeometry x="30" width="150" height="30" as="geometry" />
        </mxCell>
        <mxCell id="8F-fdPQP1DDQS2xu3WU4-109" value="Subscription" style="shape=table;startSize=30;container=1;collapsible=1;childLayout=tableLayout;fixedRows=1;rowLines=0;fontStyle=1;align=center;resizeLast=1;" vertex="1" parent="O-0z_XvXsrsmprmGc8mZ-1">
          <mxGeometry x="530" y="310" width="180" height="220" as="geometry" />
        </mxCell>
        <mxCell id="8F-fdPQP1DDQS2xu3WU4-110" value="" style="shape=partialRectangle;collapsible=0;dropTarget=0;pointerEvents=0;fillColor=none;top=0;left=0;bottom=1;right=0;points=[[0,0.5],[1,0.5]];portConstraint=eastwest;" vertex="1" parent="8F-fdPQP1DDQS2xu3WU4-109">
          <mxGeometry y="30" width="180" height="30" as="geometry" />
        </mxCell>
        <mxCell id="8F-fdPQP1DDQS2xu3WU4-111" value="PK" style="shape=partialRectangle;connectable=0;fillColor=none;top=0;left=0;bottom=0;right=0;fontStyle=1;overflow=hidden;" vertex="1" parent="8F-fdPQP1DDQS2xu3WU4-110">
          <mxGeometry width="30" height="30" as="geometry" />
        </mxCell>
        <mxCell id="8F-fdPQP1DDQS2xu3WU4-112" value="UniqueID" style="shape=partialRectangle;connectable=0;fillColor=none;top=0;left=0;bottom=0;right=0;align=left;spacingLeft=6;fontStyle=5;overflow=hidden;" vertex="1" parent="8F-fdPQP1DDQS2xu3WU4-110">
          <mxGeometry x="30" width="150" height="30" as="geometry" />
        </mxCell>
        <mxCell id="8F-fdPQP1DDQS2xu3WU4-113" value="" style="shape=partialRectangle;collapsible=0;dropTarget=0;pointerEvents=0;fillColor=none;top=0;left=0;bottom=0;right=0;points=[[0,0.5],[1,0.5]];portConstraint=eastwest;" vertex="1" parent="8F-fdPQP1DDQS2xu3WU4-109">
          <mxGeometry y="60" width="180" height="30" as="geometry" />
        </mxCell>
        <mxCell id="8F-fdPQP1DDQS2xu3WU4-114" value="" style="shape=partialRectangle;connectable=0;fillColor=none;top=0;left=0;bottom=0;right=0;editable=1;overflow=hidden;" vertex="1" parent="8F-fdPQP1DDQS2xu3WU4-113">
          <mxGeometry width="30" height="30" as="geometry" />
        </mxCell>
        <mxCell id="8F-fdPQP1DDQS2xu3WU4-115" value="topic_id" style="shape=partialRectangle;connectable=0;fillColor=none;top=0;left=0;bottom=0;right=0;align=left;spacingLeft=6;overflow=hidden;" vertex="1" parent="8F-fdPQP1DDQS2xu3WU4-113">
          <mxGeometry x="30" width="150" height="30" as="geometry" />
        </mxCell>
        <mxCell id="8F-fdPQP1DDQS2xu3WU4-116" value="" style="shape=partialRectangle;collapsible=0;dropTarget=0;pointerEvents=0;fillColor=none;top=0;left=0;bottom=0;right=0;points=[[0,0.5],[1,0.5]];portConstraint=eastwest;" vertex="1" parent="8F-fdPQP1DDQS2xu3WU4-109">
          <mxGeometry y="90" width="180" height="30" as="geometry" />
        </mxCell>
        <mxCell id="8F-fdPQP1DDQS2xu3WU4-117" value="" style="shape=partialRectangle;connectable=0;fillColor=none;top=0;left=0;bottom=0;right=0;editable=1;overflow=hidden;" vertex="1" parent="8F-fdPQP1DDQS2xu3WU4-116">
          <mxGeometry width="30" height="30" as="geometry" />
        </mxCell>
        <mxCell id="8F-fdPQP1DDQS2xu3WU4-118" value="subscriber_id" style="shape=partialRectangle;connectable=0;fillColor=none;top=0;left=0;bottom=0;right=0;align=left;spacingLeft=6;overflow=hidden;" vertex="1" parent="8F-fdPQP1DDQS2xu3WU4-116">
          <mxGeometry x="30" width="150" height="30" as="geometry" />
        </mxCell>
        <mxCell id="8F-fdPQP1DDQS2xu3WU4-144" style="shape=partialRectangle;collapsible=0;dropTarget=0;pointerEvents=0;fillColor=none;top=0;left=0;bottom=0;right=0;points=[[0,0.5],[1,0.5]];portConstraint=eastwest;" vertex="1" parent="8F-fdPQP1DDQS2xu3WU4-109">
          <mxGeometry y="120" width="180" height="30" as="geometry" />
        </mxCell>
        <mxCell id="8F-fdPQP1DDQS2xu3WU4-145" style="shape=partialRectangle;connectable=0;fillColor=none;top=0;left=0;bottom=0;right=0;editable=1;overflow=hidden;" vertex="1" parent="8F-fdPQP1DDQS2xu3WU4-144">
          <mxGeometry width="30" height="30" as="geometry" />
        </mxCell>
        <mxCell id="8F-fdPQP1DDQS2xu3WU4-146" value="subscription_date" style="shape=partialRectangle;connectable=0;fillColor=none;top=0;left=0;bottom=0;right=0;align=left;spacingLeft=6;overflow=hidden;" vertex="1" parent="8F-fdPQP1DDQS2xu3WU4-144">
          <mxGeometry x="30" width="150" height="30" as="geometry" />
        </mxCell>
        <mxCell id="8F-fdPQP1DDQS2xu3WU4-119" value="" style="shape=partialRectangle;collapsible=0;dropTarget=0;pointerEvents=0;fillColor=none;top=0;left=0;bottom=0;right=0;points=[[0,0.5],[1,0.5]];portConstraint=eastwest;" vertex="1" parent="8F-fdPQP1DDQS2xu3WU4-109">
          <mxGeometry y="150" width="180" height="30" as="geometry" />
        </mxCell>
        <mxCell id="8F-fdPQP1DDQS2xu3WU4-120" value="" style="shape=partialRectangle;connectable=0;fillColor=none;top=0;left=0;bottom=0;right=0;editable=1;overflow=hidden;" vertex="1" parent="8F-fdPQP1DDQS2xu3WU4-119">
          <mxGeometry width="30" height="30" as="geometry" />
        </mxCell>
        <mxCell id="8F-fdPQP1DDQS2xu3WU4-121" value="user_id" style="shape=partialRectangle;connectable=0;fillColor=none;top=0;left=0;bottom=0;right=0;align=left;spacingLeft=6;overflow=hidden;" vertex="1" parent="8F-fdPQP1DDQS2xu3WU4-119">
          <mxGeometry x="30" width="150" height="30" as="geometry" />
        </mxCell>
        <mxCell id="8F-fdPQP1DDQS2xu3WU4-141" style="shape=partialRectangle;collapsible=0;dropTarget=0;pointerEvents=0;fillColor=none;top=0;left=0;bottom=0;right=0;points=[[0,0.5],[1,0.5]];portConstraint=eastwest;" vertex="1" parent="8F-fdPQP1DDQS2xu3WU4-109">
          <mxGeometry y="180" width="180" height="30" as="geometry" />
        </mxCell>
        <mxCell id="8F-fdPQP1DDQS2xu3WU4-142" style="shape=partialRectangle;connectable=0;fillColor=none;top=0;left=0;bottom=0;right=0;editable=1;overflow=hidden;" vertex="1" parent="8F-fdPQP1DDQS2xu3WU4-141">
          <mxGeometry width="30" height="30" as="geometry" />
        </mxCell>
        <mxCell id="8F-fdPQP1DDQS2xu3WU4-143" value="tenant_id" style="shape=partialRectangle;connectable=0;fillColor=none;top=0;left=0;bottom=0;right=0;align=left;spacingLeft=6;overflow=hidden;" vertex="1" parent="8F-fdPQP1DDQS2xu3WU4-141">
          <mxGeometry x="30" width="150" height="30" as="geometry" />
        </mxCell>
        <mxCell id="8F-fdPQP1DDQS2xu3WU4-122" value="Subscriber" style="shape=table;startSize=30;container=1;collapsible=1;childLayout=tableLayout;fixedRows=1;rowLines=0;fontStyle=1;align=center;resizeLast=1;" vertex="1" parent="O-0z_XvXsrsmprmGc8mZ-1">
          <mxGeometry x="300" y="310" width="180" height="190" as="geometry" />
        </mxCell>
        <mxCell id="8F-fdPQP1DDQS2xu3WU4-123" value="" style="shape=partialRectangle;collapsible=0;dropTarget=0;pointerEvents=0;fillColor=none;top=0;left=0;bottom=1;right=0;points=[[0,0.5],[1,0.5]];portConstraint=eastwest;" vertex="1" parent="8F-fdPQP1DDQS2xu3WU4-122">
          <mxGeometry y="30" width="180" height="30" as="geometry" />
        </mxCell>
        <mxCell id="8F-fdPQP1DDQS2xu3WU4-124" value="PK" style="shape=partialRectangle;connectable=0;fillColor=none;top=0;left=0;bottom=0;right=0;fontStyle=1;overflow=hidden;" vertex="1" parent="8F-fdPQP1DDQS2xu3WU4-123">
          <mxGeometry width="30" height="30" as="geometry" />
        </mxCell>
        <mxCell id="8F-fdPQP1DDQS2xu3WU4-125" value="subscriber_id" style="shape=partialRectangle;connectable=0;fillColor=none;top=0;left=0;bottom=0;right=0;align=left;spacingLeft=6;fontStyle=5;overflow=hidden;" vertex="1" parent="8F-fdPQP1DDQS2xu3WU4-123">
          <mxGeometry x="30" width="150" height="30" as="geometry" />
        </mxCell>
        <mxCell id="8F-fdPQP1DDQS2xu3WU4-126" value="" style="shape=partialRectangle;collapsible=0;dropTarget=0;pointerEvents=0;fillColor=none;top=0;left=0;bottom=0;right=0;points=[[0,0.5],[1,0.5]];portConstraint=eastwest;" vertex="1" parent="8F-fdPQP1DDQS2xu3WU4-122">
          <mxGeometry y="60" width="180" height="30" as="geometry" />
        </mxCell>
        <mxCell id="8F-fdPQP1DDQS2xu3WU4-127" value="" style="shape=partialRectangle;connectable=0;fillColor=none;top=0;left=0;bottom=0;right=0;editable=1;overflow=hidden;" vertex="1" parent="8F-fdPQP1DDQS2xu3WU4-126">
          <mxGeometry width="30" height="30" as="geometry" />
        </mxCell>
        <mxCell id="8F-fdPQP1DDQS2xu3WU4-128" value="name" style="shape=partialRectangle;connectable=0;fillColor=none;top=0;left=0;bottom=0;right=0;align=left;spacingLeft=6;overflow=hidden;" vertex="1" parent="8F-fdPQP1DDQS2xu3WU4-126">
          <mxGeometry x="30" width="150" height="30" as="geometry" />
        </mxCell>
        <mxCell id="aglGlDvpV62IEmC4X-FX-48" style="shape=partialRectangle;collapsible=0;dropTarget=0;pointerEvents=0;fillColor=none;top=0;left=0;bottom=0;right=0;points=[[0,0.5],[1,0.5]];portConstraint=eastwest;" vertex="1" parent="8F-fdPQP1DDQS2xu3WU4-122">
          <mxGeometry y="90" width="180" height="30" as="geometry" />
        </mxCell>
        <mxCell id="aglGlDvpV62IEmC4X-FX-49" style="shape=partialRectangle;connectable=0;fillColor=none;top=0;left=0;bottom=0;right=0;editable=1;overflow=hidden;" vertex="1" parent="aglGlDvpV62IEmC4X-FX-48">
          <mxGeometry width="30" height="30" as="geometry" />
        </mxCell>
        <mxCell id="aglGlDvpV62IEmC4X-FX-50" value="subscription_id" style="shape=partialRectangle;connectable=0;fillColor=none;top=0;left=0;bottom=0;right=0;align=left;spacingLeft=6;overflow=hidden;" vertex="1" parent="aglGlDvpV62IEmC4X-FX-48">
          <mxGeometry x="30" width="150" height="30" as="geometry" />
        </mxCell>
        <mxCell id="8F-fdPQP1DDQS2xu3WU4-129" value="" style="shape=partialRectangle;collapsible=0;dropTarget=0;pointerEvents=0;fillColor=none;top=0;left=0;bottom=0;right=0;points=[[0,0.5],[1,0.5]];portConstraint=eastwest;" vertex="1" parent="8F-fdPQP1DDQS2xu3WU4-122">
          <mxGeometry y="120" width="180" height="30" as="geometry" />
        </mxCell>
        <mxCell id="8F-fdPQP1DDQS2xu3WU4-130" value="" style="shape=partialRectangle;connectable=0;fillColor=none;top=0;left=0;bottom=0;right=0;editable=1;overflow=hidden;" vertex="1" parent="8F-fdPQP1DDQS2xu3WU4-129">
          <mxGeometry width="30" height="30" as="geometry" />
        </mxCell>
        <mxCell id="8F-fdPQP1DDQS2xu3WU4-131" value="user_id" style="shape=partialRectangle;connectable=0;fillColor=none;top=0;left=0;bottom=0;right=0;align=left;spacingLeft=6;overflow=hidden;" vertex="1" parent="8F-fdPQP1DDQS2xu3WU4-129">
          <mxGeometry x="30" width="150" height="30" as="geometry" />
        </mxCell>
        <mxCell id="8F-fdPQP1DDQS2xu3WU4-132" value="" style="shape=partialRectangle;collapsible=0;dropTarget=0;pointerEvents=0;fillColor=none;top=0;left=0;bottom=0;right=0;points=[[0,0.5],[1,0.5]];portConstraint=eastwest;" vertex="1" parent="8F-fdPQP1DDQS2xu3WU4-122">
          <mxGeometry y="150" width="180" height="30" as="geometry" />
        </mxCell>
        <mxCell id="8F-fdPQP1DDQS2xu3WU4-133" value="" style="shape=partialRectangle;connectable=0;fillColor=none;top=0;left=0;bottom=0;right=0;editable=1;overflow=hidden;" vertex="1" parent="8F-fdPQP1DDQS2xu3WU4-132">
          <mxGeometry width="30" height="30" as="geometry" />
        </mxCell>
        <mxCell id="8F-fdPQP1DDQS2xu3WU4-134" value="tenant_id" style="shape=partialRectangle;connectable=0;fillColor=none;top=0;left=0;bottom=0;right=0;align=left;spacingLeft=6;overflow=hidden;" vertex="1" parent="8F-fdPQP1DDQS2xu3WU4-132">
          <mxGeometry x="30" width="150" height="30" as="geometry" />
        </mxCell>
        <mxCell id="aglGlDvpV62IEmC4X-FX-0" value="Stats" style="shape=table;startSize=30;container=1;collapsible=1;childLayout=tableLayout;fixedRows=1;rowLines=0;fontStyle=1;align=center;resizeLast=1;" vertex="1" parent="O-0z_XvXsrsmprmGc8mZ-1">
          <mxGeometry x="1260" y="100" width="180" height="250" as="geometry" />
        </mxCell>
        <mxCell id="aglGlDvpV62IEmC4X-FX-1" value="" style="shape=partialRectangle;collapsible=0;dropTarget=0;pointerEvents=0;fillColor=none;top=0;left=0;bottom=1;right=0;points=[[0,0.5],[1,0.5]];portConstraint=eastwest;" vertex="1" parent="aglGlDvpV62IEmC4X-FX-0">
          <mxGeometry y="30" width="180" height="30" as="geometry" />
        </mxCell>
        <mxCell id="aglGlDvpV62IEmC4X-FX-2" value="PK" style="shape=partialRectangle;connectable=0;fillColor=none;top=0;left=0;bottom=0;right=0;fontStyle=1;overflow=hidden;" vertex="1" parent="aglGlDvpV62IEmC4X-FX-1">
          <mxGeometry width="30" height="30" as="geometry" />
        </mxCell>
        <mxCell id="aglGlDvpV62IEmC4X-FX-3" value="stats_id" style="shape=partialRectangle;connectable=0;fillColor=none;top=0;left=0;bottom=0;right=0;align=left;spacingLeft=6;fontStyle=5;overflow=hidden;" vertex="1" parent="aglGlDvpV62IEmC4X-FX-1">
          <mxGeometry x="30" width="150" height="30" as="geometry" />
        </mxCell>
        <mxCell id="aglGlDvpV62IEmC4X-FX-4" value="" style="shape=partialRectangle;collapsible=0;dropTarget=0;pointerEvents=0;fillColor=none;top=0;left=0;bottom=0;right=0;points=[[0,0.5],[1,0.5]];portConstraint=eastwest;" vertex="1" parent="aglGlDvpV62IEmC4X-FX-0">
          <mxGeometry y="60" width="180" height="30" as="geometry" />
        </mxCell>
        <mxCell id="aglGlDvpV62IEmC4X-FX-5" value="" style="shape=partialRectangle;connectable=0;fillColor=none;top=0;left=0;bottom=0;right=0;editable=1;overflow=hidden;" vertex="1" parent="aglGlDvpV62IEmC4X-FX-4">
          <mxGeometry width="30" height="30" as="geometry" />
        </mxCell>
        <mxCell id="aglGlDvpV62IEmC4X-FX-6" value="total_rows" style="shape=partialRectangle;connectable=0;fillColor=none;top=0;left=0;bottom=0;right=0;align=left;spacingLeft=6;overflow=hidden;" vertex="1" parent="aglGlDvpV62IEmC4X-FX-4">
          <mxGeometry x="30" width="150" height="30" as="geometry" />
        </mxCell>
        <mxCell id="aglGlDvpV62IEmC4X-FX-7" value="" style="shape=partialRectangle;collapsible=0;dropTarget=0;pointerEvents=0;fillColor=none;top=0;left=0;bottom=0;right=0;points=[[0,0.5],[1,0.5]];portConstraint=eastwest;" vertex="1" parent="aglGlDvpV62IEmC4X-FX-0">
          <mxGeometry y="90" width="180" height="30" as="geometry" />
        </mxCell>
        <mxCell id="aglGlDvpV62IEmC4X-FX-8" value="" style="shape=partialRectangle;connectable=0;fillColor=none;top=0;left=0;bottom=0;right=0;editable=1;overflow=hidden;" vertex="1" parent="aglGlDvpV62IEmC4X-FX-7">
          <mxGeometry width="30" height="30" as="geometry" />
        </mxCell>
        <mxCell id="aglGlDvpV62IEmC4X-FX-9" value="total_columns" style="shape=partialRectangle;connectable=0;fillColor=none;top=0;left=0;bottom=0;right=0;align=left;spacingLeft=6;overflow=hidden;" vertex="1" parent="aglGlDvpV62IEmC4X-FX-7">
          <mxGeometry x="30" width="150" height="30" as="geometry" />
        </mxCell>
        <mxCell id="aglGlDvpV62IEmC4X-FX-10" value="" style="shape=partialRectangle;collapsible=0;dropTarget=0;pointerEvents=0;fillColor=none;top=0;left=0;bottom=0;right=0;points=[[0,0.5],[1,0.5]];portConstraint=eastwest;" vertex="1" parent="aglGlDvpV62IEmC4X-FX-0">
          <mxGeometry y="120" width="180" height="30" as="geometry" />
        </mxCell>
        <mxCell id="aglGlDvpV62IEmC4X-FX-11" value="" style="shape=partialRectangle;connectable=0;fillColor=none;top=0;left=0;bottom=0;right=0;editable=1;overflow=hidden;" vertex="1" parent="aglGlDvpV62IEmC4X-FX-10">
          <mxGeometry width="30" height="30" as="geometry" />
        </mxCell>
        <mxCell id="aglGlDvpV62IEmC4X-FX-12" value="size" style="shape=partialRectangle;connectable=0;fillColor=none;top=0;left=0;bottom=0;right=0;align=left;spacingLeft=6;overflow=hidden;" vertex="1" parent="aglGlDvpV62IEmC4X-FX-10">
          <mxGeometry x="30" width="150" height="30" as="geometry" />
        </mxCell>
        <mxCell id="aglGlDvpV62IEmC4X-FX-13" style="shape=partialRectangle;collapsible=0;dropTarget=0;pointerEvents=0;fillColor=none;top=0;left=0;bottom=0;right=0;points=[[0,0.5],[1,0.5]];portConstraint=eastwest;" vertex="1" parent="aglGlDvpV62IEmC4X-FX-0">
          <mxGeometry y="150" width="180" height="30" as="geometry" />
        </mxCell>
        <mxCell id="aglGlDvpV62IEmC4X-FX-14" style="shape=partialRectangle;connectable=0;fillColor=none;top=0;left=0;bottom=0;right=0;editable=1;overflow=hidden;" vertex="1" parent="aglGlDvpV62IEmC4X-FX-13">
          <mxGeometry width="30" height="30" as="geometry" />
        </mxCell>
        <mxCell id="aglGlDvpV62IEmC4X-FX-15" value="total_downloaded" style="shape=partialRectangle;connectable=0;fillColor=none;top=0;left=0;bottom=0;right=0;align=left;spacingLeft=6;overflow=hidden;" vertex="1" parent="aglGlDvpV62IEmC4X-FX-13">
          <mxGeometry x="30" width="150" height="30" as="geometry" />
        </mxCell>
        <mxCell id="aglGlDvpV62IEmC4X-FX-51" style="shape=partialRectangle;collapsible=0;dropTarget=0;pointerEvents=0;fillColor=none;top=0;left=0;bottom=0;right=0;points=[[0,0.5],[1,0.5]];portConstraint=eastwest;" vertex="1" parent="aglGlDvpV62IEmC4X-FX-0">
          <mxGeometry y="180" width="180" height="30" as="geometry" />
        </mxCell>
        <mxCell id="aglGlDvpV62IEmC4X-FX-52" style="shape=partialRectangle;connectable=0;fillColor=none;top=0;left=0;bottom=0;right=0;editable=1;overflow=hidden;" vertex="1" parent="aglGlDvpV62IEmC4X-FX-51">
          <mxGeometry width="30" height="30" as="geometry" />
        </mxCell>
        <mxCell id="aglGlDvpV62IEmC4X-FX-53" value="total_views" style="shape=partialRectangle;connectable=0;fillColor=none;top=0;left=0;bottom=0;right=0;align=left;spacingLeft=6;overflow=hidden;" vertex="1" parent="aglGlDvpV62IEmC4X-FX-51">
          <mxGeometry x="30" width="150" height="30" as="geometry" />
        </mxCell>
        <mxCell id="aglGlDvpV62IEmC4X-FX-57" style="shape=partialRectangle;collapsible=0;dropTarget=0;pointerEvents=0;fillColor=none;top=0;left=0;bottom=0;right=0;points=[[0,0.5],[1,0.5]];portConstraint=eastwest;" vertex="1" parent="aglGlDvpV62IEmC4X-FX-0">
          <mxGeometry y="210" width="180" height="30" as="geometry" />
        </mxCell>
        <mxCell id="aglGlDvpV62IEmC4X-FX-58" style="shape=partialRectangle;connectable=0;fillColor=none;top=0;left=0;bottom=0;right=0;editable=1;overflow=hidden;" vertex="1" parent="aglGlDvpV62IEmC4X-FX-57">
          <mxGeometry width="30" height="30" as="geometry" />
        </mxCell>
        <mxCell id="aglGlDvpV62IEmC4X-FX-59" value="tenant_id" style="shape=partialRectangle;connectable=0;fillColor=none;top=0;left=0;bottom=0;right=0;align=left;spacingLeft=6;overflow=hidden;" vertex="1" parent="aglGlDvpV62IEmC4X-FX-57">
          <mxGeometry x="30" width="150" height="30" as="geometry" />
        </mxCell>
        <mxCell id="aglGlDvpV62IEmC4X-FX-22" value="Tag" style="shape=table;startSize=30;container=1;collapsible=1;childLayout=tableLayout;fixedRows=1;rowLines=0;fontStyle=1;align=center;resizeLast=1;" vertex="1" parent="O-0z_XvXsrsmprmGc8mZ-1">
          <mxGeometry x="530" y="650" width="180" height="160" as="geometry" />
        </mxCell>
        <mxCell id="aglGlDvpV62IEmC4X-FX-23" value="" style="shape=partialRectangle;collapsible=0;dropTarget=0;pointerEvents=0;fillColor=none;top=0;left=0;bottom=1;right=0;points=[[0,0.5],[1,0.5]];portConstraint=eastwest;" vertex="1" parent="aglGlDvpV62IEmC4X-FX-22">
          <mxGeometry y="30" width="180" height="30" as="geometry" />
        </mxCell>
        <mxCell id="aglGlDvpV62IEmC4X-FX-24" value="PK" style="shape=partialRectangle;connectable=0;fillColor=none;top=0;left=0;bottom=0;right=0;fontStyle=1;overflow=hidden;" vertex="1" parent="aglGlDvpV62IEmC4X-FX-23">
          <mxGeometry width="30" height="30" as="geometry" />
        </mxCell>
        <mxCell id="aglGlDvpV62IEmC4X-FX-25" value="UniqueID" style="shape=partialRectangle;connectable=0;fillColor=none;top=0;left=0;bottom=0;right=0;align=left;spacingLeft=6;fontStyle=5;overflow=hidden;" vertex="1" parent="aglGlDvpV62IEmC4X-FX-23">
          <mxGeometry x="30" width="150" height="30" as="geometry" />
        </mxCell>
        <mxCell id="aglGlDvpV62IEmC4X-FX-26" value="" style="shape=partialRectangle;collapsible=0;dropTarget=0;pointerEvents=0;fillColor=none;top=0;left=0;bottom=0;right=0;points=[[0,0.5],[1,0.5]];portConstraint=eastwest;" vertex="1" parent="aglGlDvpV62IEmC4X-FX-22">
          <mxGeometry y="60" width="180" height="30" as="geometry" />
        </mxCell>
        <mxCell id="aglGlDvpV62IEmC4X-FX-27" value="" style="shape=partialRectangle;connectable=0;fillColor=none;top=0;left=0;bottom=0;right=0;editable=1;overflow=hidden;" vertex="1" parent="aglGlDvpV62IEmC4X-FX-26">
          <mxGeometry width="30" height="30" as="geometry" />
        </mxCell>
        <mxCell id="aglGlDvpV62IEmC4X-FX-28" value="name" style="shape=partialRectangle;connectable=0;fillColor=none;top=0;left=0;bottom=0;right=0;align=left;spacingLeft=6;overflow=hidden;" vertex="1" parent="aglGlDvpV62IEmC4X-FX-26">
          <mxGeometry x="30" width="150" height="30" as="geometry" />
        </mxCell>
        <mxCell id="aglGlDvpV62IEmC4X-FX-29" value="" style="shape=partialRectangle;collapsible=0;dropTarget=0;pointerEvents=0;fillColor=none;top=0;left=0;bottom=0;right=0;points=[[0,0.5],[1,0.5]];portConstraint=eastwest;" vertex="1" parent="aglGlDvpV62IEmC4X-FX-22">
          <mxGeometry y="90" width="180" height="30" as="geometry" />
        </mxCell>
        <mxCell id="aglGlDvpV62IEmC4X-FX-30" value="" style="shape=partialRectangle;connectable=0;fillColor=none;top=0;left=0;bottom=0;right=0;editable=1;overflow=hidden;" vertex="1" parent="aglGlDvpV62IEmC4X-FX-29">
          <mxGeometry width="30" height="30" as="geometry" />
        </mxCell>
        <mxCell id="aglGlDvpV62IEmC4X-FX-31" value="tag_set_id" style="shape=partialRectangle;connectable=0;fillColor=none;top=0;left=0;bottom=0;right=0;align=left;spacingLeft=6;overflow=hidden;" vertex="1" parent="aglGlDvpV62IEmC4X-FX-29">
          <mxGeometry x="30" width="150" height="30" as="geometry" />
        </mxCell>
        <mxCell id="aglGlDvpV62IEmC4X-FX-32" value="" style="shape=partialRectangle;collapsible=0;dropTarget=0;pointerEvents=0;fillColor=none;top=0;left=0;bottom=0;right=0;points=[[0,0.5],[1,0.5]];portConstraint=eastwest;" vertex="1" parent="aglGlDvpV62IEmC4X-FX-22">
          <mxGeometry y="120" width="180" height="30" as="geometry" />
        </mxCell>
        <mxCell id="aglGlDvpV62IEmC4X-FX-33" value="" style="shape=partialRectangle;connectable=0;fillColor=none;top=0;left=0;bottom=0;right=0;editable=1;overflow=hidden;" vertex="1" parent="aglGlDvpV62IEmC4X-FX-32">
          <mxGeometry width="30" height="30" as="geometry" />
        </mxCell>
        <mxCell id="aglGlDvpV62IEmC4X-FX-34" value="tenant_id" style="shape=partialRectangle;connectable=0;fillColor=none;top=0;left=0;bottom=0;right=0;align=left;spacingLeft=6;overflow=hidden;" vertex="1" parent="aglGlDvpV62IEmC4X-FX-32">
          <mxGeometry x="30" width="150" height="30" as="geometry" />
        </mxCell>
        <mxCell id="aglGlDvpV62IEmC4X-FX-35" value="TagSet" style="shape=table;startSize=30;container=1;collapsible=1;childLayout=tableLayout;fixedRows=1;rowLines=0;fontStyle=1;align=center;resizeLast=1;" vertex="1" parent="O-0z_XvXsrsmprmGc8mZ-1">
          <mxGeometry x="760" y="650" width="180" height="160" as="geometry" />
        </mxCell>
        <mxCell id="aglGlDvpV62IEmC4X-FX-36" value="" style="shape=partialRectangle;collapsible=0;dropTarget=0;pointerEvents=0;fillColor=none;top=0;left=0;bottom=1;right=0;points=[[0,0.5],[1,0.5]];portConstraint=eastwest;" vertex="1" parent="aglGlDvpV62IEmC4X-FX-35">
          <mxGeometry y="30" width="180" height="30" as="geometry" />
        </mxCell>
        <mxCell id="aglGlDvpV62IEmC4X-FX-37" value="PK" style="shape=partialRectangle;connectable=0;fillColor=none;top=0;left=0;bottom=0;right=0;fontStyle=1;overflow=hidden;" vertex="1" parent="aglGlDvpV62IEmC4X-FX-36">
          <mxGeometry width="30" height="30" as="geometry" />
        </mxCell>
        <mxCell id="aglGlDvpV62IEmC4X-FX-38" value="UniqueID" style="shape=partialRectangle;connectable=0;fillColor=none;top=0;left=0;bottom=0;right=0;align=left;spacingLeft=6;fontStyle=5;overflow=hidden;" vertex="1" parent="aglGlDvpV62IEmC4X-FX-36">
          <mxGeometry x="30" width="150" height="30" as="geometry" />
        </mxCell>
        <mxCell id="aglGlDvpV62IEmC4X-FX-39" value="" style="shape=partialRectangle;collapsible=0;dropTarget=0;pointerEvents=0;fillColor=none;top=0;left=0;bottom=0;right=0;points=[[0,0.5],[1,0.5]];portConstraint=eastwest;" vertex="1" parent="aglGlDvpV62IEmC4X-FX-35">
          <mxGeometry y="60" width="180" height="30" as="geometry" />
        </mxCell>
        <mxCell id="aglGlDvpV62IEmC4X-FX-40" value="" style="shape=partialRectangle;connectable=0;fillColor=none;top=0;left=0;bottom=0;right=0;editable=1;overflow=hidden;" vertex="1" parent="aglGlDvpV62IEmC4X-FX-39">
          <mxGeometry width="30" height="30" as="geometry" />
        </mxCell>
        <mxCell id="aglGlDvpV62IEmC4X-FX-41" value="tag_id" style="shape=partialRectangle;connectable=0;fillColor=none;top=0;left=0;bottom=0;right=0;align=left;spacingLeft=6;overflow=hidden;" vertex="1" parent="aglGlDvpV62IEmC4X-FX-39">
          <mxGeometry x="30" width="150" height="30" as="geometry" />
        </mxCell>
        <mxCell id="aglGlDvpV62IEmC4X-FX-42" value="" style="shape=partialRectangle;collapsible=0;dropTarget=0;pointerEvents=0;fillColor=none;top=0;left=0;bottom=0;right=0;points=[[0,0.5],[1,0.5]];portConstraint=eastwest;" vertex="1" parent="aglGlDvpV62IEmC4X-FX-35">
          <mxGeometry y="90" width="180" height="30" as="geometry" />
        </mxCell>
        <mxCell id="aglGlDvpV62IEmC4X-FX-43" value="" style="shape=partialRectangle;connectable=0;fillColor=none;top=0;left=0;bottom=0;right=0;editable=1;overflow=hidden;" vertex="1" parent="aglGlDvpV62IEmC4X-FX-42">
          <mxGeometry width="30" height="30" as="geometry" />
        </mxCell>
        <mxCell id="aglGlDvpV62IEmC4X-FX-44" value="dataset_id" style="shape=partialRectangle;connectable=0;fillColor=none;top=0;left=0;bottom=0;right=0;align=left;spacingLeft=6;overflow=hidden;" vertex="1" parent="aglGlDvpV62IEmC4X-FX-42">
          <mxGeometry x="30" width="150" height="30" as="geometry" />
        </mxCell>
        <mxCell id="aglGlDvpV62IEmC4X-FX-45" value="" style="shape=partialRectangle;collapsible=0;dropTarget=0;pointerEvents=0;fillColor=none;top=0;left=0;bottom=0;right=0;points=[[0,0.5],[1,0.5]];portConstraint=eastwest;" vertex="1" parent="aglGlDvpV62IEmC4X-FX-35">
          <mxGeometry y="120" width="180" height="30" as="geometry" />
        </mxCell>
        <mxCell id="aglGlDvpV62IEmC4X-FX-46" value="" style="shape=partialRectangle;connectable=0;fillColor=none;top=0;left=0;bottom=0;right=0;editable=1;overflow=hidden;" vertex="1" parent="aglGlDvpV62IEmC4X-FX-45">
          <mxGeometry width="30" height="30" as="geometry" />
        </mxCell>
        <mxCell id="aglGlDvpV62IEmC4X-FX-47" value="tenant_id" style="shape=partialRectangle;connectable=0;fillColor=none;top=0;left=0;bottom=0;right=0;align=left;spacingLeft=6;overflow=hidden;" vertex="1" parent="aglGlDvpV62IEmC4X-FX-45">
          <mxGeometry x="30" width="150" height="30" as="geometry" />
        </mxCell>
      </root>
    </mxGraphModel>
  </diagram>
  <diagram id="EIWAH9JHI0bdr5S6S33r" name="User Center">
    <mxGraphModel dx="2062" dy="1123" grid="1" gridSize="10" guides="1" tooltips="1" connect="1" arrows="1" fold="1" page="1" pageScale="1" pageWidth="1654" pageHeight="1169" math="0" shadow="0">
      <root>
        <mxCell id="jQmTCcJKMoTFsvpaHRi2-0" />
        <mxCell id="jQmTCcJKMoTFsvpaHRi2-1" parent="jQmTCcJKMoTFsvpaHRi2-0" />
      </root>
    </mxGraphModel>
  </diagram>
  <diagram id="rFNgmwjdoNVlHP7WiuRH" name="Service Configuration Center">
    <mxGraphModel dx="2062" dy="1123" grid="1" gridSize="10" guides="1" tooltips="1" connect="1" arrows="1" fold="1" page="1" pageScale="1" pageWidth="1654" pageHeight="1169" math="0" shadow="0">
      <root>
        <mxCell id="Pqh09dZd4SkqGW40P2xF-0" />
        <mxCell id="Pqh09dZd4SkqGW40P2xF-1" parent="Pqh09dZd4SkqGW40P2xF-0" />
      </root>
    </mxGraphModel>
  </diagram>
</mxfile>
